<svg width="34" height="36" viewBox="0 0 34 36" fill="none" xmlns="http://www.w3.org/2000/svg">
<g filter="url(#filter0_d_72_4639)">
<rect x="3" y="3" width="28.2129" height="27.7918" rx="3.3687" fill="url(#paint0_linear_72_4639)"/>
<rect x="1.73674" y="1.73674" width="30.7394" height="30.3183" rx="4.63197" stroke="url(#paint1_linear_72_4639)" stroke-width="2.52653"/>
<path d="M12.4746 22.37C12.4746 22.1374 12.286 21.9489 12.0535 21.9489H8.89532C5.52705 21.9489 5.52711 12.8955 8.89532 12.8955H12.0535C12.286 12.8955 12.4746 12.707 12.4746 12.4744V8.89518C12.4746 5.52647 21.5283 5.52648 21.5283 8.89518V12.4744C21.5283 12.707 21.7168 12.8955 21.9494 12.8955H25.1076C29.1079 12.8955 28.6868 21.9489 25.1076 21.9489H21.9494C21.7168 21.9489 21.5283 22.1374 21.5283 22.37V25.5282C21.5283 28.4758 12.4746 28.4758 12.4746 25.5282V22.37Z" fill="white" stroke="#B16108" stroke-width="1.26326"/>
</g>
<defs>
<filter id="filter0_d_72_4639" x="0.472656" y="0.473389" width="33.2676" height="35.3715" filterUnits="userSpaceOnUse" color-interpolation-filters="sRGB">
<feFlood flood-opacity="0" result="BackgroundImageFix"/>
<feColorMatrix in="SourceAlpha" type="matrix" values="0 0 0 0 0 0 0 0 0 0 0 0 0 0 0 0 0 0 127 0" result="hardAlpha"/>
<feOffset dy="2.52653"/>
<feComposite in2="hardAlpha" operator="out"/>
<feColorMatrix type="matrix" values="0 0 0 0 0.501961 0 0 0 0 0.25098 0 0 0 0 0.109804 0 0 0 1 0"/>
<feBlend mode="normal" in2="BackgroundImageFix" result="effect1_dropShadow_72_4639"/>
<feBlend mode="normal" in="SourceGraphic" in2="effect1_dropShadow_72_4639" result="shape"/>
</filter>
<linearGradient id="paint0_linear_72_4639" x1="3" y1="30.7918" x2="31.2129" y2="3" gradientUnits="userSpaceOnUse">
<stop stop-color="#F6AD00"/>
<stop offset="1" stop-color="#FDC501"/>
</linearGradient>
<linearGradient id="paint1_linear_72_4639" x1="3" y1="30.7918" x2="31.2129" y2="3" gradientUnits="userSpaceOnUse">
<stop stop-color="#FFE721"/>
<stop offset="1" stop-color="#FFFFBE"/>
</linearGradient>
</defs>
</svg>
