<svg width="23" height="27" viewBox="0 0 23 27" fill="none" xmlns="http://www.w3.org/2000/svg">
<path d="M22.2467 15.9367C22.2467 16.0725 22.2467 16.208 22.2392 16.3398C22.2392 16.4115 22.2392 16.4792 22.2352 16.5509C22.2316 16.6413 22.2277 16.7357 22.2241 16.8297C22.1902 17.4176 22.1261 17.9943 22.0245 18.5594C22.0058 18.6801 21.9831 18.7968 21.9604 18.9135C21.9604 18.9135 21.9604 18.9135 21.9604 18.9172C21.9301 19.0677 21.8963 19.2187 21.8585 19.3692C21.6549 20.2359 21.3232 21.0348 20.8938 21.7621C20.8899 21.7621 20.8899 21.7621 20.8899 21.7661C20.8636 21.8187 20.8373 21.864 20.807 21.9091C20.7958 21.9242 20.7883 21.9429 20.7807 21.9581C20.7205 22.0485 20.664 22.1389 20.6035 22.2257C20.3773 22.5611 20.1287 22.8813 19.8611 23.1792C19.6349 23.4317 19.3975 23.6727 19.145 23.8989C18.7794 24.2306 18.3875 24.5357 17.9729 24.8109C17.6336 25.0371 17.2795 25.2442 16.9103 25.4326C16.7255 25.5306 16.5371 25.621 16.3451 25.7078C15.5462 26.0659 14.6982 26.3371 13.8279 26.5179C13.1572 26.6537 12.4714 26.7402 11.7856 26.7665C11.6613 26.7705 11.5406 26.7741 11.4199 26.7777C10.7492 26.7852 10.0785 26.7399 9.41503 26.6383C8.84591 26.5554 8.28073 26.4272 7.73068 26.2615C7.25953 26.1181 6.79628 25.9449 6.34387 25.7414C6.15186 25.6546 5.96315 25.5642 5.77475 25.4626C5.3789 25.259 4.99849 25.0292 4.62927 24.7692C4.456 24.6485 4.28635 24.5203 4.1167 24.3848C4.01872 24.3095 3.92436 24.2303 3.83033 24.1474C3.43481 23.8121 3.06164 23.4428 2.71477 23.0358C2.63192 22.9454 2.55663 22.8514 2.47739 22.7531C1.53543 21.5773 0.793039 20.1228 0.34458 18.3855C0.148625 17.6319 0.0430848 16.8481 0.00922017 16.0492C-0.0170824 15.3446 0.0128398 14.6249 0.0996383 13.9013C0.144682 13.5245 0.205178 13.1477 0.276853 12.7709C0.532974 11.4295 0.966307 10.0917 1.52787 8.81433C2.8545 5.81091 4.90808 3.14316 7.16517 1.54889C8.46518 0.629289 9.83324 0.0680613 11.1671 0.00756537C11.2953 3.37129e-06 11.4272 0 11.559 0C11.5702 0 11.5778 0 11.5778 0C11.9019 0.007562 12.2334 0.033866 12.55 0.120665C12.6216 0.135789 12.6894 0.154534 12.7571 0.180836C13.1868 0.331419 13.605 0.512576 14.0121 0.723325C16.9741 2.24559 19.3594 5.26019 20.7837 8.74232C20.9796 9.22465 21.1605 9.71453 21.3189 10.212C21.6316 11.1881 21.8729 12.1867 22.0275 13.1891C22.1711 14.109 22.2467 15.0287 22.2467 15.9367Z" fill="url(#paint0_radial_72_8480)"/>
<path d="M5.77475 25.463C5.3789 25.2594 4.99849 25.0296 4.62927 24.7696C4.456 24.6489 4.28636 24.5207 4.1167 24.3852C4.01873 24.3099 3.92436 24.2307 3.83033 24.1478C3.43481 23.8125 3.06164 23.4432 2.71477 23.0362C2.63192 22.9458 2.55663 22.8518 2.47739 22.7535C1.53543 21.5777 0.793039 20.1232 0.34458 18.3859C0.148625 17.6324 0.0430848 16.8485 0.00922017 16.0496C-0.0170824 15.345 0.0128398 14.6253 0.0996383 13.9017C1.77643 13.4269 4.10914 13.585 6.82225 16.0082C10.715 19.4827 7.84345 23.4206 5.77475 25.463Z" fill="url(#paint1_linear_72_8480)"/>
<path d="M18.1751 13.4459C18.1712 13.4498 18.1712 13.4498 18.1712 13.4498C17.8585 14.3503 17.0106 15.0927 15.5787 15.2094C11.6859 15.5221 12.4698 9.79045 15.4545 9.85851C15.7296 9.86607 15.9897 9.89994 16.2271 9.96043C16.2912 9.97556 16.3287 9.98673 16.3287 9.98673C17.968 10.4575 18.6463 12.1195 18.1751 13.4459Z" fill="url(#paint2_linear_72_8480)"/>
<path d="M21.3206 10.2125C21.008 10.2201 20.6762 10.2125 20.3257 10.1974C10.1775 9.71111 10.6299 2.94706 12.5517 0.12085C12.6233 0.135974 12.6911 0.154709 12.7588 0.181011C13.1885 0.331594 13.6067 0.512761 14.0138 0.72351C16.9758 2.24577 19.3611 5.26037 20.7854 8.74251C20.9813 9.22516 21.1625 9.71505 21.3206 10.2125Z" fill="url(#paint3_linear_72_8480)"/>
<path d="M22.2383 16.3398C22.2383 16.4115 22.2383 16.4792 22.2343 16.5509C22.2307 16.6413 22.2268 16.7357 22.2232 16.8297C22.1893 17.4176 22.1252 17.9943 22.0236 18.5595C22.0049 18.6801 21.9822 18.7968 21.9595 18.9136C21.9595 18.9136 21.9595 18.9136 21.9595 18.9172C21.9292 19.0678 21.8954 19.2187 21.8576 19.3693C21.654 20.2359 21.3223 21.0349 20.8929 21.7621C20.889 21.7621 20.889 21.7621 20.889 21.7661C20.8627 21.8187 20.8364 21.864 20.8061 21.9091C20.7949 21.9242 20.7874 21.943 20.7798 21.9581C20.7196 22.0485 20.6631 22.1389 20.6026 22.2257C20.3764 22.5611 20.1278 22.8813 19.8602 23.1792C19.634 23.4317 19.3966 23.6727 19.1441 23.8989C18.7785 24.2306 18.3866 24.5357 17.972 24.8109C17.6327 25.0371 17.2786 25.2443 16.9094 25.4327C14.3399 22.6482 18.8242 17.821 22.2383 16.3398Z" fill="url(#paint4_linear_72_8480)"/>
<path opacity="0.28" d="M21.7448 18.7452C21.6793 19.0451 21.6018 19.3443 21.5107 19.6382C21.0984 20.9678 20.4753 22.0794 19.7218 22.996C17.4854 25.718 14.0993 26.7333 11.6571 26.6781C10.9176 26.6613 10.0266 26.6051 9.06791 26.4509C8.19302 26.3102 7.26191 26.0889 6.34329 25.742C5.74787 25.4724 5.17348 25.1489 4.63033 24.7695C4.45575 24.6478 4.28511 24.5206 4.11743 24.3868C4.02077 24.3095 3.9251 24.2309 3.83008 24.1487C5.67981 25.1565 9.64624 26.4769 14.5928 23.2314C21.4952 18.7048 20.8278 9.14575 20.8278 9.14575C21.1474 10.0456 21.5274 11.3483 21.774 12.8413C22.0749 14.6578 22.1771 16.7531 21.7448 18.7452Z" fill="url(#paint5_linear_72_8480)"/>
<path opacity="0.28" d="M10.7691 26.7254C7.2353 26.7261 19.2536 15.5271 20.407 18.3773C21.5607 21.2279 19.2868 26.7241 10.7691 26.7254Z" fill="url(#paint6_linear_72_8480)"/>
<defs>
<radialGradient id="paint0_radial_72_8480" cx="0" cy="0" r="1" gradientUnits="userSpaceOnUse" gradientTransform="translate(11.5139 12.5733) scale(12.7872)">
<stop offset="0.0146" stop-color="#FFDEBF"/>
<stop offset="0.247" stop-color="#FAD5B9"/>
<stop offset="0.6271" stop-color="#EEBCA9"/>
<stop offset="1" stop-color="#DE9E95"/>
</radialGradient>
<linearGradient id="paint1_linear_72_8480" x1="5.30058" y1="27.5697" x2="3.54205" y2="9.16778" gradientUnits="userSpaceOnUse">
<stop stop-color="#A126FF"/>
<stop offset="0.0738" stop-color="#922DFF"/>
<stop offset="0.3957" stop-color="#544BFF"/>
<stop offset="0.6685" stop-color="#2661FF"/>
<stop offset="0.8783" stop-color="#0A6EFF"/>
<stop offset="1" stop-color="#0073FF"/>
</linearGradient>
<linearGradient id="paint2_linear_72_8480" x1="16.0934" y1="21.8577" x2="15.4655" y2="9.55071" gradientUnits="userSpaceOnUse">
<stop stop-color="#A126FF"/>
<stop offset="0.0738" stop-color="#922DFF"/>
<stop offset="0.3957" stop-color="#544BFF"/>
<stop offset="0.6685" stop-color="#2661FF"/>
<stop offset="0.8783" stop-color="#0A6EFF"/>
<stop offset="1" stop-color="#0073FF"/>
</linearGradient>
<linearGradient id="paint3_linear_72_8480" x1="21.2555" y1="1.72738" x2="12.7768" y2="8.47892" gradientUnits="userSpaceOnUse">
<stop stop-color="#A126FF"/>
<stop offset="0.0738" stop-color="#922DFF"/>
<stop offset="0.3957" stop-color="#544BFF"/>
<stop offset="0.6685" stop-color="#2661FF"/>
<stop offset="0.8783" stop-color="#0A6EFF"/>
<stop offset="1" stop-color="#0073FF"/>
</linearGradient>
<linearGradient id="paint4_linear_72_8480" x1="18.7178" y1="26.9043" x2="19.7541" y2="11.8624" gradientUnits="userSpaceOnUse">
<stop stop-color="#A126FF"/>
<stop offset="0.0738" stop-color="#922DFF"/>
<stop offset="0.3957" stop-color="#544BFF"/>
<stop offset="0.6685" stop-color="#2661FF"/>
<stop offset="0.8783" stop-color="#0A6EFF"/>
<stop offset="1" stop-color="#0073FF"/>
</linearGradient>
<linearGradient id="paint5_linear_72_8480" x1="18.2481" y1="23.9428" x2="1.45851" y2="3.24861" gradientUnits="userSpaceOnUse">
<stop stop-color="#9A0C7D"/>
<stop offset="0.039" stop-color="#AB3593"/>
<stop offset="0.0862" stop-color="#BC5FA9"/>
<stop offset="0.139" stop-color="#CC85BE"/>
<stop offset="0.1961" stop-color="#DAA6D0"/>
<stop offset="0.259" stop-color="#E6C2DE"/>
<stop offset="0.3295" stop-color="#EFD9EB"/>
<stop offset="0.4111" stop-color="#F6EAF4"/>
<stop offset="0.5108" stop-color="#FBF6FA"/>
<stop offset="0.648" stop-color="#FEFDFE"/>
<stop offset="1" stop-color="white"/>
</linearGradient>
<linearGradient id="paint6_linear_72_8480" x1="17.7918" y1="25.1349" x2="1.55444" y2="7.36122" gradientUnits="userSpaceOnUse">
<stop stop-color="#DB1111"/>
<stop offset="0.0348" stop-color="#E03535"/>
<stop offset="0.0822" stop-color="#E75F5F"/>
<stop offset="0.1352" stop-color="#ED8585"/>
<stop offset="0.1925" stop-color="#F2A6A6"/>
<stop offset="0.2557" stop-color="#F6C2C2"/>
<stop offset="0.3265" stop-color="#F9D9D9"/>
<stop offset="0.4084" stop-color="#FCEAEA"/>
<stop offset="0.5086" stop-color="#FEF6F6"/>
<stop offset="0.6464" stop-color="#FFFDFD"/>
<stop offset="1" stop-color="white"/>
</linearGradient>
</defs>
</svg>
