<svg width="45" height="39" viewBox="0 0 45 39" fill="none" xmlns="http://www.w3.org/2000/svg">
<path d="M6.57357 33.2478C6.57357 33.2478 0.335901 12.1416 1.57497 7.12905C2.81405 2.11649 5.68646 -0.671333 10.9241 7.86132C17.0288 17.8064 15.2607 34.0503 15.2607 34.0503L6.57357 33.2478Z" fill="#7C1338"/>
<path d="M36.326 33.2055L15.2621 34.0503C15.2621 34.0503 15.9944 23.3695 13.685 14.8833C11.3757 6.39715 7.2083 3.07382 5.6875 2.51074C5.6875 2.51074 15.6564 4.257 21.7388 4.70754C27.8213 5.15808 35.65 4.42581 38.1281 3.919C38.1281 3.919 41.1697 19.576 36.326 33.2055Z" fill="url(#paint0_linear_72_4413)"/>
<path d="M16.2055 8.91748C16.2055 8.91748 31.3274 9.67769 34.8758 9.55118L35.1722 9.84688L15.5 9.08667L16.2055 8.91748Z" fill="#7C1338"/>
<path d="M16.0783 15.0845C23.5551 15.5067 36.1426 15.0845 36.1426 15.0845L35.6781 15.5067C35.6781 15.5067 21.1895 15.2533 14.5156 15.5067L16.0783 15.0845Z" fill="#7C1338"/>
<path d="M18.9211 31.0092C18.9211 31.0092 28.2789 30.891 35.7187 30.1221C35.8407 30.1096 35.5091 30.5654 35.5091 30.5654C35.5091 30.5654 18.1043 31.3468 18.2312 31.3468C18.3581 31.3472 18.9211 31.0092 18.9211 31.0092Z" fill="#7C1338"/>
<path opacity="0.46" d="M21.8438 9.33154C21.8438 9.33154 27.1445 9.80436 28.961 9.9524C30.7775 10.1001 33.7549 9.7919 33.7549 9.7919L21.8438 9.33154Z" fill="url(#paint1_radial_72_4413)"/>
<path opacity="0.46" d="M21.0625 15.3979L32.193 15.4569C32.193 15.4569 28.307 15.6125 25.5822 15.6759C22.8579 15.7393 21.0625 15.3979 21.0625 15.3979Z" fill="url(#paint2_radial_72_4413)"/>
<path opacity="0.46" d="M20.8789 31.2247C20.9631 31.221 30.4384 30.7935 30.4384 30.7935C30.4384 30.7935 25.8216 31.389 23.5829 31.3471C21.3442 31.3048 20.8789 31.2247 20.8789 31.2247Z" fill="url(#paint3_radial_72_4413)"/>
<path opacity="0.3" d="M18.7542 7.0167C19.6923 7.88265 22.1897 8.56545 23.9639 8.62172C25.7381 8.67799 31.5082 6.58995 30.9006 5.77763C30.2933 4.96492 23.8793 5.41168 20.8381 5.10163C17.7965 4.79196 16.9237 5.32709 18.7542 7.0167Z" fill="url(#paint4_radial_72_4413)"/>
<path opacity="0.3" d="M20.3865 9.99241C19.5915 10.8973 20.9216 14.451 21.4001 14.5072C21.879 14.5635 27.6517 10.6492 26.3564 10.2832C25.0614 9.91688 21.0625 9.22276 20.3865 9.99241Z" fill="url(#paint5_radial_72_4413)"/>
<path d="M32.3403 9.5497C32.3403 9.17092 31.9982 8.36954 31.4427 8.41071C30.8871 8.45187 30.2285 9.5497 30.2285 9.5497H32.3403Z" fill="#7C1338"/>
<path d="M20.8786 30.9694C20.2427 30.8758 21.586 30.1643 22.0739 30.3754C22.5618 30.5865 22.836 30.9135 22.836 30.9135C22.836 30.9135 21.899 31.1197 20.8786 30.9694Z" fill="#7C1338"/>
<path opacity="0.5" d="M20.2128 33.121C20.0833 24.335 26.6491 27.2886 30.3422 27.5401C34.0352 27.7916 33.0431 32.1837 32.5443 32.8638C32.0454 33.5436 20.226 34.0066 20.2128 33.121Z" fill="url(#paint6_linear_72_4413)"/>
<path d="M15.2608 1.77871C15.2608 1.77871 10.1361 -0.102366 2.41992 0.0328326C2.41992 0.0328326 9.1221 2.22094 11.8816 9.88462C14.6415 17.5483 15.1302 33.7556 15.1302 33.7556L20.2118 33.1207C20.2118 33.1207 21.0449 24.445 20.2133 15.6332C19.3693 6.67874 15.2608 1.77871 15.2608 1.77871Z" fill="url(#paint7_radial_72_4413)"/>
<path d="M29.1719 2.38694C29.1719 2.38694 36.3246 1.38428 41.0554 1.55309C41.0554 1.55309 43.9841 3.86242 44.1529 11.6908C44.3217 19.5195 38.1547 32.2195 38.1547 32.2195L33.9658 32.508C33.9658 32.508 37.2517 24.296 36.6637 15.1825C35.9303 3.80616 29.1719 2.38694 29.1719 2.38694Z" fill="url(#paint8_radial_72_4413)"/>
<path d="M7.37715 7.52339C4.08252 7.14309 5.18073 12.8879 5.68754 15.8026C6.19435 18.7173 9.61587 34.0504 9.61587 34.0504H7.63131C7.63131 34.0504 4.37822 21.8851 3.15312 15.3377C1.92802 8.79041 2.51942 6.34058 3.99793 5.70688C5.47605 5.07356 7.37715 7.52339 7.37715 7.52339Z" fill="#675775"/>
<path d="M12.5676 33.493L13.0476 33.1569L13.0264 32.9515C12.9547 32.2883 12.6952 30.0352 12.1167 26.4457C11.9554 25.4411 11.7685 24.332 11.5532 23.1239C11.5136 22.8958 11.4713 22.6635 11.429 22.4278C11.2636 21.5113 11.0819 20.5407 10.884 19.5199C10.8281 19.2337 10.7726 18.9523 10.716 18.6759C10.7024 18.6143 10.6899 18.5535 10.6771 18.4927L10.6321 18.2805C8.82848 9.80939 6.31861 6.38296 4.46321 6.38296C2.689 6.38296 2.80079 10.8925 4.1237 17.8866C4.14825 18.0157 4.17355 18.1475 4.19961 18.2805C4.2064 18.3167 4.2132 18.353 4.22075 18.3896C4.44621 19.5335 4.72341 20.7896 5.02251 22.0706C5.07047 22.2741 5.11881 22.4785 5.16715 22.6831C5.4349 23.8085 5.71625 24.9404 5.99156 26.0201C6.83788 29.3411 7.62792 32.1626 7.79107 32.7396C7.81146 32.8106 7.82166 32.8476 7.82166 32.8476L9.26882 33.155L5.98439 32.8178C5.93529 32.6867 5.88733 32.5549 5.83899 32.4231L5.82464 32.3842C5.05348 30.28 4.32423 28.079 3.65843 25.8573C3.32572 24.7447 3.00812 23.6261 2.70977 22.5128C2.65841 22.3195 2.60743 22.1257 2.55682 21.9324C2.23393 20.7016 1.93597 19.478 1.66557 18.2759C1.66066 18.2567 1.65613 18.237 1.65197 18.2185L1.62478 18.0969C-0.482134 8.65189 -0.852989 0.516524 2.42162 0.0323748C6.10032 -0.510688 11.9962 5.83385 13.6858 14.8835C13.9003 16.0342 14.0839 17.2525 14.2391 18.4927C14.2474 18.5569 14.2553 18.6211 14.2636 18.6853C14.4147 19.9161 14.5397 21.1665 14.6428 22.395C14.6632 22.6291 14.6817 22.8614 14.6994 23.0929C14.7889 24.2308 14.8592 25.3418 14.9147 26.3902C14.9155 26.3936 14.9155 26.3977 14.9155 26.4011C15.1013 29.8766 15.1277 32.6686 15.1311 33.5017C15.1319 33.6683 15.1319 33.7559 15.1319 33.7559L12.5676 33.493Z" fill="#51385B"/>
<path d="M29.1728 2.38696C27.535 2.38696 26.2441 4.84698 26.2441 4.84698C26.2441 4.84698 28.7204 4.83263 29.6498 4.79071C29.6498 4.79071 32.9931 4.94706 34.5797 12.1137C36.213 19.4915 32.9184 32.3611 32.9184 32.3611L33.9675 32.5088C33.9675 32.5088 37.0993 25.5872 37.0993 15.5866C37.099 7.98791 32.8055 2.38696 29.1728 2.38696Z" fill="#51385B"/>
<path d="M1.57617 21.6718L1.77142 22.5188L12.5379 23.4641L43.6189 21.9274L43.8301 20.7446L11.9808 21.5245L1.57617 21.6718Z" fill="url(#paint9_linear_72_4413)"/>
<path d="M44.9987 17.8865L44.1573 21.1188L14.6423 22.3945L14.3104 22.4088L12.5026 22.4874L11.4281 22.4274L5.02205 22.0701L2.55599 21.9323L0.956635 21.8427C0.365234 20.1675 0.365234 18.2184 0.365234 18.2184L1.66435 18.2758L4.21992 18.3891L10.7148 18.6754L12.1612 18.7396L14.2632 18.6848L44.9987 17.8865Z" fill="#51385B"/>
<path d="M44.0727 21.7998L43.1569 24.7489L14.915 26.3894L12.9535 26.5035L12.1162 26.4453L5.9915 26.0197L3.65799 25.8573L2.42118 25.7712C1.49292 24.014 0.957031 22.392 0.957031 22.392L2.70933 22.5128L5.16671 22.6828L11.5524 23.1239L12.5011 23.1888L14.6994 23.0925L44.0727 21.7998Z" fill="#51385B"/>
<path d="M12.1621 18.74L12.5028 22.4874L44.0767 21.4319L44.9996 17.8865L12.1621 18.74Z" fill="url(#paint10_radial_72_4413)"/>
<path d="M12.9521 26.5033L12.5 23.1883L44.0716 21.7993L43.1558 24.7488C43.1558 24.7488 13.2285 26.5226 12.9521 26.5033Z" fill="url(#paint11_radial_72_4413)"/>
<path d="M0.957031 22.3919L1.67683 22.1045L1.71007 22.248L13.2915 22.6664L43.6871 21.5516L43.7083 21.4319L44.0727 21.7993L12.5014 23.1883L0.957031 22.3919Z" fill="#DACFE6"/>
<path d="M41.9286 32.5085L39.9856 37.1483L15.4987 38.8379L4.56044 37.2605L3.36328 32.3608L5.602 31.7981L5.82255 32.3843L5.8369 32.4232L7.78898 32.7392L9.27163 32.5085L13.0244 32.9515L13.0455 33.1565L15.1271 33.5013H15.1298L20.2122 33.121L20.2398 32.8042L32.9171 32.3608L33.9662 32.5085L38.1548 32.2196L38.4682 31.5549L41.9286 32.5085Z" fill="#51385B"/>
<path d="M41.9286 32.5084C41.9286 32.5084 38.4082 33.769 30.8049 34.0503C23.2017 34.3317 15.4987 34.0409 15.4987 34.0409C5.98191 32.8177 3.36328 32.3607 3.36328 32.3607L5.602 31.798L5.8369 32.423L7.74592 32.732C7.78067 32.7376 7.81617 32.7376 7.85129 32.7323L9.27201 32.5084L13.0244 32.951L13.0459 33.1564L15.1275 33.5012L20.2122 33.1209L20.2401 32.8045L32.9175 32.3607L33.9666 32.5084L38.1555 32.2199L38.4686 31.5544L41.9286 32.5084Z" fill="#DACFE6"/>
<path d="M15.5 34.0409V38.8378L39.9869 37.1482L41.9299 32.5088C41.9299 32.5088 36.7772 33.343 29.5116 33.8366C24.1992 34.1976 15.5 34.0409 15.5 34.0409Z" fill="url(#paint12_radial_72_4413)"/>
<path d="M44.9971 17.8867L14.2612 18.685L12.1596 18.7402L10.7132 18.676L4.21834 18.3893L1.66278 18.2764L0.363281 18.2186L1.62237 18.097L1.64918 18.2186L4.1972 18.2806L6.15721 18.1892L10.6297 18.2806L10.6743 18.4924H14.2367L20.4166 18.2949L20.4049 18.097L35.0275 17.6333L37.0423 17.8867L43.4201 17.6333L43.462 17.4482L44.9971 17.8867Z" fill="#DACFE6"/>
<path d="M18.9219 34.0504C18.9219 34.0504 20.386 33.7411 25.3423 33.5161C30.2986 33.291 40.3774 32.7358 40.3774 32.7358C40.3774 32.7358 38.6545 33.7559 31.671 34.1732C26.0436 34.5093 18.9219 34.0504 18.9219 34.0504Z" fill="#BBABC9"/>
<path opacity="0.5" d="M26.2441 4.84703C26.2441 4.84703 27.3295 2.61926 29.1728 2.38701C31.0161 2.15475 34.7126 5.00073 36.054 9.33164C37.3954 13.6625 37.0438 17.8866 37.0438 17.8866H35.0234L32.3406 17.2846C32.3406 17.2846 32.0282 13.8321 30.9444 10.1304C29.8605 6.42825 26.9892 4.79945 26.9892 4.79945L26.2441 4.84703Z" fill="url(#paint13_linear_72_4413)"/>
<path d="M22.3786 18.0345V16.4786C22.3786 16.4786 28.7145 15.8026 32.7459 16.613C32.7459 16.613 35.2554 17.5628 35.4665 18.2808C35.6776 18.9987 35.0775 27.1136 34.7063 27.4611C34.0333 28.0906 32.045 29.1084 32.045 29.1084L22.5565 29.4464L22.0742 25.9894L23.5546 25.9403C23.5546 25.9403 23.7888 23.9659 23.9576 22.4874L23.9768 22.0119C23.9768 22.0119 24.0191 19.7732 23.7234 18.5058L22.3786 18.0345Z" fill="#51385B"/>
<path opacity="0.7" d="M26.8637 18.9283C26.7749 19.8735 26.5117 26.6161 26.5117 27.0383C26.5117 27.4605 34.0149 27.7978 34.564 27.5021C35.1131 27.2064 35.6278 19.0797 35.0006 18.6141C34.6626 18.3637 26.8977 18.5657 26.8637 18.9283Z" fill="url(#paint14_linear_72_4413)"/>
<path opacity="0.5" d="M27.5686 24.4936C26.9655 24.4789 26.7593 19.5887 27.2869 19.1536C27.8144 18.719 34.8912 18.3957 34.9894 18.8874C35.0872 19.3787 35.3973 25.011 34.7213 25.1236C34.0453 25.2361 32.6774 23.7436 32.5449 23.3494C32.4123 22.9551 31.4172 21.4853 30.901 21.4316C30.3847 21.3784 29.4553 24.5393 27.5686 24.4936Z" fill="#594275"/>
<path opacity="0.31" d="M22.3789 16.4782C22.3789 16.4782 22.9847 17.0213 26.2192 18.0938C26.6766 18.2456 35.148 18.4881 35.1711 18.2804C35.2149 17.8861 33.2031 16.6784 32.7462 16.6127C28.5803 16.0137 24.4968 16.1776 22.3789 16.4782Z" fill="#776191"/>
<path opacity="0.5" d="M25.3596 28.0174C23.8025 28.6311 22.5566 29.4461 22.5566 29.4461L32.0451 29.1081C32.0451 29.1081 34.0319 28.1149 34.004 27.8826C33.9757 27.6507 26.7826 27.4566 25.3596 28.0174Z" fill="url(#paint15_linear_72_4413)"/>
<path d="M29.0035 25.7548C29.4502 25.9101 31.0043 26.3685 32.4597 25.8164C32.5239 25.7922 32.5575 25.7208 32.5379 25.6551L31.5602 22.4013C31.5273 22.2691 31.5639 22.1317 31.65 22.0263C31.8385 21.7959 31.9374 21.4896 31.8936 21.16C31.8264 20.6543 31.4117 20.2502 30.9049 20.1943C30.2252 20.1195 29.6496 20.6498 29.6496 21.3144C29.6496 21.5199 29.789 21.7736 29.9155 21.9613C30.0405 22.1475 30.0783 22.3786 30.0235 22.5962L28.9223 25.5841C28.8966 25.6536 28.9332 25.7303 29.0035 25.7548Z" fill="url(#paint16_linear_72_4413)"/>
<path d="M32.4597 25.8161C31.7822 26.0737 31.0827 26.1118 30.4838 26.0627C30.8445 26.0306 31.2195 25.9555 31.588 25.8161C31.6522 25.7916 31.6851 25.7206 31.6658 25.6549L30.6885 22.4007C30.6556 22.2689 30.6919 22.131 30.778 22.0264C30.9664 21.7957 31.0654 21.489 31.0219 21.1597C30.9687 20.7628 30.7009 20.427 30.3418 20.2745C30.5125 20.2027 30.7043 20.1721 30.9053 20.1944C31.4121 20.2503 31.8267 20.6548 31.8936 21.1601C31.9374 21.4894 31.8388 21.796 31.6504 22.0268C31.5643 22.1314 31.5269 22.2692 31.5601 22.401L32.5382 25.6552C32.5579 25.7206 32.5239 25.7916 32.4597 25.8161Z" fill="#51385B"/>
<path d="M33.5644 5.35489C33.7261 6.31375 34.2684 8.22882 34.8175 8.33985C35.1105 8.39914 35.1936 8.29378 35.356 8.07512C35.805 7.47012 35.7438 6.09887 35.279 5.66457C34.8145 5.23027 33.3971 4.3628 33.5644 5.35489Z" fill="url(#paint17_linear_72_4413)"/>
<path d="M34.2834 6.82062C33.7551 6.97432 34.4666 8.36332 34.8888 8.40713C35.3114 8.45056 35.6052 6.43579 34.2834 6.82062Z" fill="#51385B"/>
<path opacity="0.5" d="M33.968 32.5084C33.968 32.5084 35.8476 27.4981 36.1433 25.1563H35.1085C35.1085 25.1563 34.9605 26.9116 34.7071 27.4607C34.7071 27.4607 29.0446 27.8327 26.9901 27.6141C26.3432 27.5453 26.5147 26.4955 26.6284 23.8293C26.7424 21.163 26.5037 18.189 26.2194 18.0939C25.935 17.9987 22.379 16.4783 22.379 16.4783L20.393 17.8862L20.4062 18.0969L22.0746 18.044L22.5569 18.5029C22.5569 18.5029 22.9708 20.6917 22.8443 22.1415L21.774 22.1774V22.3553L22.8364 22.7337C22.8364 22.7337 22.7971 24.7828 22.5142 25.9479L20.493 26.0808L20.3926 30.3362C20.3926 30.3362 25.1623 29.826 30.7293 29.826C30.9468 29.826 30.8531 31.488 30.9 32.431L32.9181 32.3604L33.968 32.5084Z" fill="url(#paint18_linear_72_4413)"/>
<path opacity="0.5" d="M15.4992 34.0411V38.8381L4.56058 37.261L3.36342 32.361L5.60214 31.7983L5.82269 32.3844C5.05152 30.2801 4.32228 28.0792 3.65648 25.8575L2.41967 25.7713C1.49141 24.0141 0.955519 22.3921 0.955519 22.3921L1.67532 22.1047C1.62396 21.9114 1.67419 22.0741 1.62358 21.8808L0.955519 21.8434C0.364117 20.1681 0.364116 18.2191 0.364116 18.2191L1.62283 18.0975C-0.484088 8.65242 -0.854941 0.517055 2.41967 0.0329066C6.09913 -0.510533 11.995 5.83401 13.6846 14.8837C13.8991 16.0344 14.0827 17.2527 14.2379 18.4929L12.1604 18.7402L12.5018 22.4877L21.0333 22.2022L19.4438 22.4616L12.5003 23.189L12.9524 26.504L14.915 26.4009L15.128 33.5015L12.5664 33.4932L15.4992 34.0411Z" fill="url(#paint19_linear_72_4413)"/>
<path opacity="0.8" d="M6.11363 26.5036C7.48563 26.5176 8.34743 28.0946 8.34743 28.0946C8.34743 28.0946 10.429 28.1796 12.6678 30.1219L12.1145 26.4454L7.92522 26.1728L5.98976 26.0198L3.65625 25.8574L3.77521 26.2517L6.11363 26.5036Z" fill="url(#paint20_linear_72_4413)"/>
<path opacity="0.8" d="M4.4617 6.38296C3.11839 6.29837 2.76113 9.54428 3.46923 14.0074C3.46923 14.0074 4.08178 12.8034 5.13769 12.4235C5.13769 12.4235 6.94324 12.7377 8.45574 14.1131C9.37758 14.9515 10.1506 16.2083 10.1506 16.2083C10.1506 16.2083 8.89494 11.4786 7.56523 9.15568C6.2359 6.83199 5.07311 6.42148 4.4617 6.38296Z" fill="url(#paint21_linear_72_4413)"/>
<path d="M12.1596 18.74C11.9092 19.0972 11.7404 20.2238 11.8812 20.7446C12.0221 21.2657 12.4862 22.3254 12.4862 22.3254C12.4862 22.3254 12.5259 20.8148 12.4991 20.308C12.4722 19.8012 12.1596 18.74 12.1596 18.74Z" fill="#51385B"/>
<path d="M12.5007 23.1887C12.8965 23.6876 13.009 24.4758 13.0936 24.7292C13.1782 24.9826 12.9527 26.5034 12.9527 26.5034C12.9527 26.5034 12.3613 24.8783 12.3613 24.6347C12.3613 24.3912 12.5007 23.1887 12.5007 23.1887Z" fill="#51385B"/>
<path d="M14.941 27.2615C14.7269 28.4182 14.3606 30.03 14.5158 30.3363C14.6706 30.643 15.1283 33.501 15.1283 33.501C15.1283 33.501 15.5369 31.2461 15.3712 30.3813C15.2054 29.5164 14.941 27.2615 14.941 27.2615Z" fill="#51385B"/>
<path d="M10.9486 7.10576C10.1699 7.12729 11.6197 12.902 11.8308 13.0708C12.0419 13.2396 12.966 13.4511 13.2617 13.1554C13.5574 12.8597 13.7009 10.4385 13.5714 9.99215C13.1118 8.40904 11.7866 7.08273 10.9486 7.10576Z" fill="url(#paint22_linear_72_4413)"/>
<path d="M12.5106 11.2948C11.6568 10.0992 11.23 10.0274 11.2614 10.6774C11.2927 11.3277 11.7705 13.0781 11.9661 13.1468C12.1617 13.2152 12.7792 13.3576 12.923 13.0146C13.0669 12.6721 12.8309 11.7431 12.5106 11.2948Z" fill="#51385B"/>
<path opacity="0.5" d="M24.413 22.6143C24.2378 23.0089 23.5591 27.9071 23.7563 28.1084C23.9534 28.3097 26.0505 27.1291 26.1914 26.8629C26.3322 26.5963 26.3836 23.6324 26.046 22.9659C25.7087 22.2997 24.5803 22.2378 24.413 22.6143Z" fill="#25425C"/>
<path opacity="0.3" d="M11.7058 20.9134C12.0223 21.2941 12.3199 22.3224 12.1609 22.3254C12.0015 22.3284 8.3689 22.2389 8.32661 22.1041C8.28431 21.9693 11.344 20.4779 11.7058 20.9134Z" fill="#51385B"/>
<path opacity="0.5" d="M14.7831 34.5184C12.9111 33.9716 4.39202 32.3813 4.08235 32.8639C3.77267 33.3465 3.88332 36.6552 4.95548 37.0638C6.02763 37.4724 13.0969 38.0744 13.3752 38.0241C14.7827 37.7707 15.1577 34.6279 14.7831 34.5184Z" fill="#25425C"/>
<path opacity="0.5" d="M1.57622 0.764964C-0.55449 2.59053 0.129815 8.91732 1.4127 8.62275C1.82434 8.52834 3.12421 6.34854 4.1382 6.19974C5.15182 6.05095 6.39089 6.38102 7.32029 6.38102C8.24969 6.38102 8.95439 5.28583 7.56577 3.2956C6.17752 1.30614 2.95691 -0.41784 1.57622 0.764964Z" fill="#25425C"/>
<path d="M35.748 22.1661C38.8527 22.9158 43.8313 21.7998 43.8313 21.7998C43.8313 21.7998 41.6772 21.8493 40.5578 21.8349C39.4381 21.821 35.748 22.1661 35.748 22.1661Z" fill="#BBABC9"/>
<path d="M14.2617 18.6851C16.218 19.2383 22.0734 18.4823 22.0734 18.4823C22.0734 18.4823 20.6233 18.3739 17.8011 18.4823C14.9793 18.5906 14.2617 18.6851 14.2617 18.6851Z" fill="#BBABC9"/>
<path opacity="0.5" d="M31.4436 2.66578C32.2397 3.31043 34.464 4.87391 34.8764 5.01817C38.1703 6.17152 43.366 6.17152 42.9434 5.36901C42.5212 4.5665 41.8029 2.20089 40.1979 2.03208C38.5929 1.86327 30.8786 2.20845 31.4436 2.66578Z" fill="#594275"/>
<path opacity="0.3" d="M35.7466 28.5492C35.4026 29.0658 34.7643 31.8623 35.1442 31.9469C35.5245 32.0315 39.7388 28.7373 39.6965 27.7656C39.6542 26.7935 36.2247 27.8313 35.7466 28.5492Z" fill="#D2FFF1"/>
<path opacity="0.1" d="M41.3383 12.076C40.5895 12.9083 40.8319 13.6481 41.3383 13.6481C41.8448 13.6481 43.1964 11.8834 43.1122 11.752C43.0279 11.6205 41.9037 11.4479 41.3383 12.076Z" fill="#D2FFF1"/>
<path opacity="0.5" d="M7.03865 0.377912C5.71801 0.399816 10.493 5.58044 12.1075 6.04495C13.7219 6.50946 16.8595 6.76701 16.8383 5.62273C16.8077 3.96107 15.7216 1.99766 14.1585 1.53428C12.5958 1.0709 7.93897 0.363183 7.03865 0.377912Z" fill="#594275"/>
<path opacity="0.1" d="M14.2621 9.54955C13.8878 10.7648 14.6058 17.6475 15.1307 17.8866C15.6552 18.1256 19.4571 18.1328 19.4571 17.2846C19.4571 16.436 14.6008 8.44983 14.2621 9.54955Z" fill="#D2FFF1"/>
<path opacity="0.1" d="M16.2031 9.54956C16.2062 10.0284 17.3697 13.0572 17.8002 13.0572C18.2307 13.0572 18.8629 9.75953 18.1665 9.54956C17.4705 9.33959 16.2001 9.02047 16.2031 9.54956Z" fill="#D2FFF1"/>
<path opacity="0.5" d="M20.2402 32.8045C23.0333 31.9665 32.9176 32.3607 32.9176 32.3607C32.9176 32.3607 30.6173 32.8959 26.3888 33.0084C22.1602 33.1209 20.2402 32.8045 20.2402 32.8045Z" fill="url(#paint23_linear_72_4413)"/>
<path opacity="0.5" d="M15.5 38.8378C17.8528 37.4858 28.5256 34.4012 34.3546 34.2962C40.1837 34.1912 39.9865 37.1482 39.9865 37.1482L15.5 38.8378Z" fill="#594275"/>
<path d="M10.1513 22.3835C10.2513 22.3658 12.3869 21.7895 12.4991 21.7997C13.4172 21.885 15.5622 22.2529 16.0641 22.3496C16.1121 22.359 12.6343 22.4874 12.5021 22.4874C11.643 22.4874 10.0731 22.3975 10.1513 22.3835Z" fill="#423152"/>
<path d="M44.8957 18.2805C44.8402 18.3175 38.8752 18.1971 38.8457 18.0464C38.8359 17.9958 44.9984 17.7711 44.9984 17.8866C44.998 18.0558 44.9452 18.2473 44.8957 18.2805Z" fill="#BBABC9"/>
<path d="M12.5005 23.1888C12.6686 23.4645 13.0443 24.3962 13.1123 24.4936C13.2894 24.7477 19.5524 22.9184 19.1049 22.898C18.6573 22.8776 12.3559 22.9513 12.5005 23.1888Z" fill="#BBABC9"/>
<path opacity="0.8" d="M41.0119 25.4454C41.0119 25.4454 38.5444 26.3396 35.7456 26.9499C35.7456 26.9499 35.1179 27.4975 33.7497 28.5496C33.7497 28.5496 33.6904 29.0663 33.5711 29.4466C33.5711 29.4466 23.1453 29.9111 20.47 29.8269L20.4764 26.7286C20.4764 26.7286 17.9718 27.0156 14.9687 27.5062C14.9687 27.5062 13.2667 27.8544 12.3346 27.9114L12.2043 27.2622L11.8301 26.4276L23.5535 25.9408C23.5535 25.9408 22.6385 26.7294 22.3005 27.4616L22.5554 29.4469L32.0439 29.1089C32.0439 29.1089 34.3811 27.9684 34.7052 27.4616C35.0288 26.9548 35.1066 25.1572 35.1066 25.1572L41.2276 24.8638L41.0119 25.4454Z" fill="url(#paint24_linear_72_4413)"/>
<path opacity="0.5" d="M43.8294 13.7359C43.4948 13.1471 37.0551 15.6967 37.1896 16.2144C37.324 16.7322 36.8992 17.853 37.3667 17.8542C37.8342 17.8553 42.7055 17.7352 43.1153 17.4482C43.525 17.1616 44.1674 14.3303 43.8294 13.7359Z" fill="#594275"/>
<path opacity="0.3" d="M36.5009 18.3609C35.9507 18.6589 35.2664 21.4176 35.7464 21.4822C36.2263 21.5472 42.8156 21.3357 43.217 21.1034C43.6185 20.8712 44.177 18.4527 43.7239 18.3605C43.2711 18.2691 37.198 17.9836 36.5009 18.3609Z" fill="#D2FFF1"/>
<path opacity="0.3" d="M0.955617 18.6608C0.543977 19.6729 0.617619 20.9097 0.955617 20.8342C1.29361 20.7586 3.83445 18.9176 3.11314 18.7401C2.39183 18.5622 1.11499 18.2688 0.955617 18.6608Z" fill="#51385B"/>
<path opacity="0.3" d="M16.4149 34.6981C15.0595 35.4281 15.8341 37.7541 17.1188 37.458C22.5555 36.2046 18.3496 33.6562 16.4149 34.6981Z" fill="#D2FFF1"/>
<path opacity="0.3" d="M4.75808 26.9823C4.7898 27.727 5.64896 31.2433 5.88461 31.5549C6.09119 31.8283 7.07648 32.0926 7.08139 31.854C7.09083 31.3747 4.729 26.3025 4.75808 26.9823Z" fill="#51385B"/>
<path opacity="0.3" d="M10.8406 14.5078C10.0615 15.265 10.5026 17.8795 11.1223 18.094C11.7416 18.3089 13.5834 18.7873 13.6201 17.7175C13.6567 16.6476 12.8965 12.5089 10.8406 14.5078Z" fill="#51385B"/>
<path opacity="0.9" d="M43.5569 6.62716C43.452 6.2665 35.7467 7.10564 35.7467 7.10564L35.4473 7.85113C35.4473 7.85113 36.2985 9.61778 36.5372 10.9362C36.5372 10.9362 36.6497 10.1627 37.0855 9.99241C37.5527 9.80962 43.1355 9.52979 43.6189 9.54942C44.1023 9.56906 44.0717 10.2692 44.0717 10.2692C44.0717 10.2692 44.0324 8.2605 43.5569 6.62716Z" fill="#95A8CF"/>
<path opacity="0.9" d="M10.4238 6.1897C11.6198 6.59718 18.2318 7.20331 18.2318 7.20331C18.3031 7.3861 18.7518 8.63272 18.7518 8.63272C18.7518 8.63272 14.456 7.95257 12.5005 8.05492C12.5005 8.05492 11.5647 7.06849 10.9491 7.10588L10.4238 6.1897Z" fill="#95A8CF"/>
<path opacity="0.3" d="M40.2848 3.8911C40.1134 5.93306 38.1998 6.55052 37.3535 6.09999C36.5846 5.69061 36.3965 3.35559 37.244 2.55422C37.7206 2.10293 40.2848 3.8911 40.2848 3.8911Z" fill="#3E2952"/>
<path d="M37.0629 2.81042C36.7049 3.67864 37.1842 4.67149 38.0558 5.0548C38.8708 5.41319 39.8081 5.13449 40.2175 4.41544C40.6525 3.65107 40.3731 2.60913 39.5128 2.10044C38.5849 1.55209 37.4463 1.87989 37.0629 2.81042Z" fill="#3A2542"/>
<path opacity="0.84" d="M40.2274 3.21451C40.255 3.58725 37.7957 3.57668 37.9143 3.0034C38.2383 1.4403 40.133 1.93956 40.2274 3.21451Z" fill="#B3A8BD"/>
<path opacity="0.6" d="M40.2848 3.78024C40.3996 4.40903 39.4358 5.26366 38.7424 5.01856C38.2213 4.83427 37.8965 3.88599 38.097 3.73606C38.3697 3.53213 40.2009 3.32027 40.2848 3.78024Z" fill="#D2FFF1"/>
<path opacity="0.3" d="M42.1071 9.70141C41.9357 11.743 40.0221 12.3608 39.1758 11.9103C38.4069 11.5009 38.2188 9.1659 39.0659 8.36452C39.5429 7.91323 42.1071 9.70141 42.1071 9.70141Z" fill="#3E2952"/>
<path d="M38.889 8.62024C38.5313 9.48846 39.0102 10.4813 39.8818 10.8646C40.6968 11.223 41.6341 10.9443 42.0435 10.2253C42.4785 9.46089 42.1991 8.41895 41.3388 7.91025C40.4113 7.3619 39.2723 7.6897 38.889 8.62024Z" fill="#3A2542"/>
<path opacity="0.84" d="M42.0516 9.02441C42.0792 9.39715 39.6199 9.38658 39.7385 8.8133C40.0626 7.25058 41.9572 7.74946 42.0516 9.02441Z" fill="#B3A8BD"/>
<path opacity="0.6" d="M42.107 9.59002C42.2218 10.2188 41.2581 11.0734 40.5647 10.8283C40.0436 10.644 39.7188 9.69577 39.9193 9.54584C40.192 9.34228 42.0232 9.13042 42.107 9.59002Z" fill="#D2FFF1"/>
<path opacity="0.3" d="M42.6247 15.3957C42.4532 17.4377 40.5396 18.0552 39.6933 17.6046C38.9244 17.1953 38.7364 14.8602 39.5838 14.0589C40.0604 13.6076 42.6247 15.3957 42.6247 15.3957Z" fill="#3E2952"/>
<path d="M39.4026 14.3146C39.045 15.1828 39.5239 16.1756 40.3955 16.559C41.2104 16.9173 42.1478 16.6386 42.5572 15.9196C42.9922 15.1552 42.7127 14.1133 41.8525 13.6046C40.9249 13.0562 39.7863 13.384 39.4026 14.3146Z" fill="#3A2542"/>
<path opacity="0.84" d="M42.5673 14.7187C42.5948 15.0914 40.1356 15.0808 40.2542 14.5076C40.5782 12.9445 42.4729 13.4437 42.5673 14.7187Z" fill="#B3A8BD"/>
<path opacity="0.6" d="M42.6246 15.2845C42.7394 15.9133 41.7757 16.7679 41.0823 16.5228C40.5611 16.3385 40.2364 15.3902 40.4369 15.2403C40.7096 15.0364 42.5408 14.8249 42.6246 15.2845Z" fill="#D2FFF1"/>
<path opacity="0.3" d="M38.4163 35.7485C38.2449 37.7905 36.1338 37.5182 35.2875 37.0677C34.5186 36.6583 34.5276 35.2127 35.3751 34.4113C35.8521 33.9604 38.4163 35.7485 38.4163 35.7485Z" fill="#3E2952"/>
<path d="M35.1956 34.6676C34.838 35.5358 35.3168 36.5287 36.1884 36.912C37.0034 37.2704 37.9407 36.9917 38.3501 36.2726C38.7852 35.5083 38.5057 34.4663 37.6454 33.9576C36.7179 33.4089 35.5793 33.7367 35.1956 34.6676Z" fill="#3A2542"/>
<path opacity="0.84" d="M38.3622 35.0718C38.3898 35.4446 35.9305 35.434 36.0491 34.8607C36.3727 33.2976 38.2674 33.7965 38.3622 35.0718Z" fill="#B3A8BD"/>
<path opacity="0.6" d="M38.4156 35.6374C38.5304 36.2662 37.5667 37.1208 36.8733 36.8757C36.3522 36.6914 36.0274 35.7432 36.2279 35.5932C36.5006 35.3893 38.3314 35.1774 38.4156 35.6374Z" fill="#D2FFF1"/>
<path opacity="0.3" d="M30.6437 36.1472C30.4722 38.1888 28.4129 38.0411 27.5666 37.5906C26.7977 37.1812 26.7554 35.6117 27.6024 34.8103C28.0794 34.359 30.6437 36.1472 30.6437 36.1472Z" fill="#3E2952"/>
<path d="M27.4241 35.066C27.0665 35.9343 27.5453 36.9271 28.417 37.3104C29.2319 37.6688 30.1693 37.3901 30.5786 36.6711C31.0137 35.9067 30.7342 34.8647 29.8739 34.3561C28.9468 33.8077 27.8078 34.1355 27.4241 35.066Z" fill="#3A2542"/>
<path opacity="0.84" d="M30.5888 35.4702C30.6163 35.843 28.1571 35.8324 28.2756 35.2591C28.5997 33.6964 30.4943 34.1953 30.5888 35.4702Z" fill="#B3A8BD"/>
<path opacity="0.6" d="M30.6442 36.0358C30.759 36.6646 29.7952 37.5192 29.1018 37.2741C28.5807 37.0899 28.2559 36.1416 28.4564 35.9916C28.7291 35.7881 30.5603 35.5762 30.6442 36.0358Z" fill="#D2FFF1"/>
<path opacity="0.3" d="M22.5993 36.6179C22.4279 38.6599 20.5283 38.7158 19.682 38.2652C18.9131 37.8559 18.7107 36.082 19.5581 35.2807C20.0351 34.8298 22.5993 36.6179 22.5993 36.6179Z" fill="#3E2952"/>
<path d="M19.3792 35.537C19.0216 36.4052 19.5004 37.3981 20.372 37.7814C21.187 38.1398 22.1243 37.8611 22.5337 37.142C22.9688 36.3776 22.6893 35.3357 21.829 34.827C20.9015 34.2783 19.7625 34.6061 19.3792 35.537Z" fill="#3A2542"/>
<path opacity="0.84" d="M22.5438 35.9412C22.5714 36.3139 20.1121 36.3034 20.2307 35.7301C20.5547 34.167 22.4494 34.6659 22.5438 35.9412Z" fill="#B3A8BD"/>
<path opacity="0.6" d="M22.5992 36.5065C22.714 37.1353 21.7503 37.9899 21.0569 37.7448C20.5357 37.5606 20.211 36.6123 20.4115 36.4623C20.6842 36.2588 22.5154 36.0469 22.5992 36.5065Z" fill="#D2FFF1"/>
<path opacity="0.3" d="M18.5378 16.3329C18.3663 18.3749 16.5498 18.6691 15.7039 18.2185C14.935 17.8092 14.6495 15.7974 15.4969 14.9957C15.9735 14.5451 18.5378 16.3329 18.5378 16.3329Z" fill="#3E2952"/>
<path d="M15.3186 15.2522C14.961 16.1205 15.4399 17.1133 16.3115 17.4966C17.1265 17.855 18.0638 17.5763 18.4732 16.8573C18.9082 16.0929 18.6288 15.051 17.7685 14.5423C16.841 13.9935 15.7023 14.3217 15.3186 15.2522Z" fill="#3A2542"/>
<path opacity="0.84" d="M18.4833 15.6562C18.5109 16.0289 16.0516 16.0183 16.1702 15.4451C16.4942 13.882 18.3889 14.3812 18.4833 15.6562Z" fill="#B3A8BD"/>
<path opacity="0.6" d="M18.5386 16.2219C18.6535 16.8507 17.6897 17.7053 16.9963 17.4602C16.4755 17.2759 16.1504 16.3276 16.3509 16.1777C16.6236 15.9738 18.4548 15.7619 18.5386 16.2219Z" fill="#D2FFF1"/>
<path opacity="0.3" d="M5.29152 35.1143C4.99204 37.1411 6.88596 37.6011 7.81272 37.3556C8.65488 37.1328 9.19945 35.4806 8.55745 34.507C8.19641 33.9587 5.29152 35.1143 5.29152 35.1143Z" fill="#3E2952"/>
<path d="M8.67404 34.7972C8.82396 35.7243 8.13097 36.5816 7.19515 36.7557C6.31976 36.9185 5.4708 36.4332 5.23665 35.6397C4.9874 34.7961 5.49761 33.8455 6.45118 33.5468C7.47952 33.2243 8.51316 33.8036 8.67404 34.7972Z" fill="#3A2542"/>
<path opacity="0.48" d="M5.49991 34.4677C5.38775 34.8246 7.7847 35.3756 7.80018 34.7902C7.84173 33.1947 5.88285 33.2479 5.49991 34.4677Z" fill="#B3A8BD"/>
<path opacity="0.41" d="M5.31693 35.0061C5.06163 35.5918 5.80485 36.644 6.53598 36.5639C7.08509 36.5035 7.61795 35.6541 7.45708 35.4627C7.23804 35.2021 5.50349 34.5775 5.31693 35.0061Z" fill="#D2FFF1"/>
<path opacity="0.3" d="M10.471 35.8951C10.1715 37.922 12.2203 38.2154 13.1471 37.9699C13.9892 37.7471 14.379 36.2614 13.7369 35.2875C13.3759 34.7399 10.471 35.8951 10.471 35.8951Z" fill="#3E2952"/>
<path d="M13.8537 35.5777C14.0036 36.5048 13.3107 37.3621 12.3748 37.5362C11.4994 37.699 10.6505 37.2137 10.4163 36.4203C10.1671 35.5766 10.6773 34.626 11.6309 34.3273C12.6592 34.0048 13.6928 34.5841 13.8537 35.5777Z" fill="#3A2542"/>
<path opacity="0.48" d="M10.6796 35.2485C10.5674 35.6054 12.9644 36.1564 12.9799 35.571C13.0214 33.9754 11.0625 34.0287 10.6796 35.2485Z" fill="#B3A8BD"/>
<path opacity="0.41" d="M10.4966 35.7866C10.2413 36.3723 10.9845 37.4245 11.7157 37.3444C12.2648 37.284 12.7976 36.4347 12.6368 36.2432C12.4177 35.9826 10.6832 35.358 10.4966 35.7866Z" fill="#D2FFF1"/>
<path opacity="0.3" d="M17.5426 9.94823C17.3712 11.9902 15.4576 12.6077 14.6113 12.1571C13.8424 11.7477 13.6543 9.41272 14.5018 8.61135C14.9784 8.16005 17.5426 9.94823 17.5426 9.94823Z" fill="#3E2952"/>
<path d="M14.3227 8.86731C13.9647 9.73553 14.4439 10.7284 15.3156 11.1117C16.1305 11.4701 17.0679 11.1914 17.4772 10.4723C17.9123 9.70797 17.6328 8.66602 16.7725 8.15733C15.845 7.6086 14.706 7.9364 14.3227 8.86731Z" fill="#3A2542"/>
<path opacity="0.84" d="M17.4872 9.27099C17.5148 9.64374 15.0555 9.63316 15.1741 9.05988C15.4981 7.49716 17.3928 7.99604 17.4872 9.27099Z" fill="#B3A8BD"/>
<path opacity="0.6" d="M17.5426 9.83685C17.6574 10.4656 16.6936 11.3203 16.0003 11.0752C15.4791 10.8909 15.1543 9.94259 15.3549 9.79267C15.6275 9.58911 17.4588 9.37725 17.5426 9.83685Z" fill="#D2FFF1"/>
<path opacity="0.3" d="M14.2399 3.81591C14.0684 5.85787 12.1549 6.47533 11.3086 6.02479C10.5397 5.61542 10.3516 3.2804 11.199 2.47902C11.6756 2.02773 14.2399 3.81591 14.2399 3.81591Z" fill="#3E2952"/>
<path d="M11.0198 2.73449C10.6622 3.60271 11.141 4.59556 12.0127 4.97887C12.8276 5.33727 13.765 5.05856 14.1743 4.33951C14.6094 3.57514 14.3299 2.53321 13.4696 2.02451C12.5421 1.47616 11.4035 1.80396 11.0198 2.73449Z" fill="#3A2542"/>
<path opacity="0.84" d="M14.1845 3.13858C14.212 3.51132 11.7528 3.50075 11.8713 2.92747C12.195 1.36438 14.0897 1.86363 14.1845 3.13858Z" fill="#B3A8BD"/>
<path opacity="0.6" d="M14.2399 3.70432C14.3547 4.3331 13.3909 5.18773 12.6975 4.94263C12.1764 4.75834 11.8516 3.81006 12.0521 3.66013C12.3248 3.4562 14.1556 3.24434 14.2399 3.70432Z" fill="#D2FFF1"/>
<defs>
<linearGradient id="paint0_linear_72_4413" x1="22.3793" y1="3.77757" x2="22.3793" y2="36.5413" gradientUnits="userSpaceOnUse">
<stop offset="0.0223" stop-color="#CD6D22"/>
<stop offset="0.9541" stop-color="#C74D3E"/>
</linearGradient>
<radialGradient id="paint1_radial_72_4413" cx="0" cy="0" r="1" gradientUnits="userSpaceOnUse" gradientTransform="translate(27.7994 9.66184) scale(4.21772 4.21773)">
<stop offset="0.0223" stop-color="#FFA41A"/>
<stop offset="1" stop-color="#FF8836"/>
</radialGradient>
<radialGradient id="paint2_radial_72_4413" cx="0" cy="0" r="1" gradientUnits="userSpaceOnUse" gradientTransform="translate(26.6277 15.5409) scale(3.93648)">
<stop offset="0.0223" stop-color="#FFA41A"/>
<stop offset="1" stop-color="#FF8836"/>
</radialGradient>
<radialGradient id="paint3_radial_72_4413" cx="0" cy="0" r="1" gradientUnits="userSpaceOnUse" gradientTransform="translate(25.6586 31.0712) scale(3.38545 3.38546)">
<stop offset="0.0223" stop-color="#FFA41A"/>
<stop offset="1" stop-color="#FF8836"/>
</radialGradient>
<radialGradient id="paint4_radial_72_4413" cx="0" cy="0" r="1" gradientUnits="userSpaceOnUse" gradientTransform="translate(24.3739 6.82058) scale(4.81815)">
<stop offset="0.0223" stop-color="#FFA41A"/>
<stop offset="1" stop-color="#FF8836"/>
</radialGradient>
<radialGradient id="paint5_radial_72_4413" cx="0" cy="0" r="1" gradientUnits="userSpaceOnUse" gradientTransform="translate(23.3422 12.076) scale(2.84383)">
<stop offset="0.0223" stop-color="#FFA41A"/>
<stop offset="1" stop-color="#FF8836"/>
</radialGradient>
<linearGradient id="paint6_linear_72_4413" x1="24.9196" y1="32.0683" x2="29.8759" y2="28.2948" gradientUnits="userSpaceOnUse">
<stop stop-color="#36193B"/>
<stop offset="1" stop-color="#8E37E2"/>
</linearGradient>
<radialGradient id="paint7_radial_72_4413" cx="0" cy="0" r="1" gradientUnits="userSpaceOnUse" gradientTransform="translate(11.5016 16.8908) scale(13.5443)">
<stop stop-color="#6C6178"/>
<stop offset="1" stop-color="#9E84B5"/>
</radialGradient>
<radialGradient id="paint8_radial_72_4413" cx="0" cy="0" r="1" gradientUnits="userSpaceOnUse" gradientTransform="translate(36.6643 17.0213) scale(12.1653)">
<stop stop-color="#6C6178"/>
<stop offset="1" stop-color="#9E84B5"/>
</radialGradient>
<linearGradient id="paint9_linear_72_4413" x1="1.57629" y1="22.1044" x2="43.8302" y2="22.1044" gradientUnits="userSpaceOnUse">
<stop offset="0.004" stop-color="#1F111F"/>
<stop offset="0.6249" stop-color="#2D1C2F"/>
<stop offset="1" stop-color="#38253B"/>
</linearGradient>
<radialGradient id="paint10_radial_72_4413" cx="0" cy="0" r="1" gradientUnits="userSpaceOnUse" gradientTransform="translate(28.5808 20.1867) scale(11.7232 11.7232)">
<stop stop-color="#6C6178"/>
<stop offset="1" stop-color="#9E84B5"/>
</radialGradient>
<radialGradient id="paint11_radial_72_4413" cx="0" cy="0" r="1" gradientUnits="userSpaceOnUse" gradientTransform="translate(28.2857 24.1514) scale(11.2854 11.2854)">
<stop stop-color="#6C6178"/>
<stop offset="1" stop-color="#9E84B5"/>
</radialGradient>
<radialGradient id="paint12_radial_72_4413" cx="0" cy="0" r="1" gradientUnits="userSpaceOnUse" gradientTransform="translate(28.715 35.673) scale(9.60854 9.60854)">
<stop stop-color="#6C6178"/>
<stop offset="1" stop-color="#9E84B5"/>
</radialGradient>
<linearGradient id="paint13_linear_72_4413" x1="31.6649" y1="2.91009" x2="31.6649" y2="24.8887" gradientUnits="userSpaceOnUse">
<stop stop-color="#662D87"/>
<stop offset="1" stop-color="#D01C5C"/>
</linearGradient>
<linearGradient id="paint14_linear_72_4413" x1="26.5116" y1="23.0586" x2="35.2883" y2="23.0586" gradientUnits="userSpaceOnUse">
<stop stop-color="#A3849F"/>
<stop offset="1" stop-color="#9A95A5"/>
</linearGradient>
<linearGradient id="paint15_linear_72_4413" x1="28.2805" y1="27.7143" x2="28.2805" y2="30.2559" gradientUnits="userSpaceOnUse">
<stop stop-color="#705AB6"/>
<stop offset="1" stop-color="white"/>
</linearGradient>
<linearGradient id="paint16_linear_72_4413" x1="30.7288" y1="20.3905" x2="30.7288" y2="28.7416" gradientUnits="userSpaceOnUse">
<stop offset="0.004" stop-color="#1F111F"/>
<stop offset="0.6249" stop-color="#2D1C2F"/>
<stop offset="1" stop-color="#38253B"/>
</linearGradient>
<linearGradient id="paint17_linear_72_4413" x1="33.5507" y1="6.62705" x2="35.662" y2="6.62705" gradientUnits="userSpaceOnUse">
<stop offset="0.004" stop-color="#1F111F"/>
<stop offset="0.6249" stop-color="#2D1C2F"/>
<stop offset="1" stop-color="#38253B"/>
</linearGradient>
<linearGradient id="paint18_linear_72_4413" x1="28.2685" y1="17.0325" x2="28.2685" y2="39.7445" gradientUnits="userSpaceOnUse">
<stop stop-color="#662D87"/>
<stop offset="1" stop-color="#D01C5C"/>
</linearGradient>
<linearGradient id="paint19_linear_72_4413" x1="0.000513813" y1="19.4192" x2="21.0333" y2="19.4192" gradientUnits="userSpaceOnUse">
<stop stop-color="#662D87"/>
<stop offset="1" stop-color="#D01C5C"/>
</linearGradient>
<linearGradient id="paint20_linear_72_4413" x1="3.65625" y1="27.9898" x2="12.6677" y2="27.9898" gradientUnits="userSpaceOnUse">
<stop stop-color="#662D87"/>
<stop offset="1" stop-color="#D01C5C"/>
</linearGradient>
<linearGradient id="paint21_linear_72_4413" x1="3.11318" y1="11.2947" x2="10.1507" y2="11.2947" gradientUnits="userSpaceOnUse">
<stop stop-color="#662D87"/>
<stop offset="1" stop-color="#D01C5C"/>
</linearGradient>
<linearGradient id="paint22_linear_72_4413" x1="10.7207" y1="10.2044" x2="13.6193" y2="10.2044" gradientUnits="userSpaceOnUse">
<stop offset="0.004" stop-color="#1F111F"/>
<stop offset="0.6249" stop-color="#2D1C2F"/>
<stop offset="1" stop-color="#38253B"/>
</linearGradient>
<linearGradient id="paint23_linear_72_4413" x1="20.2403" y1="32.6503" x2="32.9179" y2="32.6503" gradientUnits="userSpaceOnUse">
<stop stop-color="#662D87"/>
<stop offset="1" stop-color="#D01C5C"/>
</linearGradient>
<linearGradient id="paint24_linear_72_4413" x1="26.5288" y1="26.3627" x2="26.5288" y2="30.4397" gradientUnits="userSpaceOnUse">
<stop stop-color="#662D87"/>
<stop offset="1" stop-color="#D01C5C"/>
</linearGradient>
</defs>
</svg>
