<svg width="34" height="35" viewBox="0 0 34 35" fill="none" xmlns="http://www.w3.org/2000/svg">
<path d="M29.9171 28.7173C35.7614 21.8198 35.1487 11.6948 28.5485 6.10235C21.9483 0.509924 11.86 1.56788 6.01568 8.46536C0.171355 15.3628 0.784103 25.4879 7.38429 31.0803C13.9845 36.6728 24.0728 35.6148 29.9171 28.7173Z" fill="#F79F03"/>
<path d="M10.3637 28.594C4.21632 23.3854 2.10263 15.616 5.22942 10.5768C5.17148 10.271 5.12966 9.96058 5.09451 9.65161C0.257326 16.4809 1.15061 25.7997 7.38152 31.0792C12.3054 35.2511 19.1702 35.7209 24.7661 32.8268C20.3885 33.869 14.8744 32.416 10.3637 28.594Z" fill="#D86A07"/>
<path d="M27.9833 26.5302C33.8259 19.6318 33.2109 9.50744 26.6099 3.91675C20.0088 -1.67395 9.92133 -0.613864 4.07881 6.28452C-1.7637 13.1829 -1.14879 23.3073 5.45226 28.898C12.0533 34.4887 22.1408 33.4286 27.9833 26.5302Z" fill="#FFE70F"/>
<path d="M27.4941 26.1155C33.0973 19.4998 32.5076 9.79022 26.177 4.42862C19.8464 -0.932983 10.1723 0.0836823 4.56917 6.6994C-1.03395 13.3151 -0.444242 23.0247 5.88631 28.3863C12.2169 33.7479 21.891 32.7312 27.4941 26.1155Z" fill="#FDC816"/>
<path d="M24.8939 23.9146C29.2268 18.7986 28.7708 11.2902 23.8753 7.144C18.9798 2.99783 11.4987 3.78402 7.16579 8.90001C2.83285 14.016 3.28888 21.5245 8.18435 25.6706C13.0798 29.8168 20.5609 29.0306 24.8939 23.9146Z" fill="#FFE70F"/>
<path d="M24.2749 23.3884C28.3041 18.631 27.88 11.6489 23.3278 7.79341C18.7755 3.9379 11.8188 4.66899 7.78963 9.42634C3.76044 14.1837 4.18449 21.1658 8.73677 25.0213C13.289 28.8768 20.2457 28.1457 24.2749 23.3884Z" fill="#FF930F"/>
<g opacity="0.35">
<path d="M26.561 27.1266L4.98811 6.22485C4.84638 6.37989 4.70622 6.53731 4.56927 6.69903C3.07572 8.46252 2.02243 10.4459 1.40039 12.5082L18.4449 31.5128C21.4119 30.9081 24.2558 29.4309 26.561 27.1266Z" fill="#FDC816"/>
<path d="M13.5755 1.31055C12.0887 1.61809 10.6334 2.14507 9.26172 2.88516L30.3465 21.2493C30.8438 19.9087 31.1533 18.5247 31.2772 17.1372L13.5755 1.31055Z" fill="#FDC816"/>
</g>
<path d="M13.2318 23.9104L13.5929 22.0994C12.3271 21.7875 11.1564 21.1971 10.5156 20.6332L11.5323 18.5168C12.2455 19.115 13.2904 19.7396 14.5296 19.9868C15.6162 20.2035 16.4434 19.9324 16.5955 19.1698C16.7399 18.4455 16.2212 17.8662 14.9055 17.1083C13.0026 16.0152 11.8011 14.7845 12.1699 12.9353C12.5045 11.2577 13.9488 10.1781 16.0684 10.1846L16.4296 8.37354L18.2979 8.74617L17.9633 10.4238C19.2292 10.7357 20.0338 11.1737 20.6021 11.6042L19.6196 13.648C19.1658 13.3395 18.3763 12.7261 17.0037 12.4523C15.7646 12.2052 15.2578 12.6591 15.1513 13.1929C15.0258 13.822 15.6132 14.3554 17.1119 15.2886C19.2208 16.5417 19.9267 17.7727 19.5845 19.4884C19.2462 21.1851 17.7562 22.3944 15.4879 22.3384L15.1 24.2828L13.2318 23.9104Z" fill="#E36D00"/>
</svg>
