<svg width="32" height="36" viewBox="0 0 32 36" fill="none" xmlns="http://www.w3.org/2000/svg">
<path d="M15.5887 17.9998V0L0 8.99951L15.5887 17.9998Z" fill="#CC2724"/>
<path d="M31.1766 8.99992V8.99951L15.5879 0V17.9998L31.1766 8.99992Z" fill="#B32320"/>
<path d="M0 8.99976V26.9996L0.000392103 27L15.5887 17.9997L0 8.99976Z" fill="#EA2D29"/>
<path d="M15.5879 36L31.1762 27.0001L15.5879 17.9998V36Z" fill="#CC2724"/>
<path d="M15.5903 17.9998L0.00195312 27.0001L15.5903 36V17.9998Z" fill="#B32320"/>
<path d="M31.1766 8.99976L15.5879 17.9997L31.1762 27L31.1766 26.9996V8.99976Z" fill="#EA2D29"/>
<path d="M24.9193 23.3862L15.5893 28.7729L6.25977 23.3862V12.6132L15.5893 7.22729L24.9193 12.6132V23.3862Z" fill="#FF615E"/>
</svg>
