<svg width="44" height="40" viewBox="0 0 44 40" fill="none" xmlns="http://www.w3.org/2000/svg">
<path d="M15.0475 14.8622C14.3938 15.7729 13.7319 16.8709 13.0667 18.0576C12.6294 18.8371 12.6417 19.7124 13.1065 20.1687C20.0847 27.0113 28.7598 33.5309 38.5686 39.8345C39.1445 40.2047 40.0101 39.9365 40.6139 39.2106C41.7581 37.8351 42.7783 36.3963 43.6342 34.8744C44.0979 34.0497 44.0569 33.1256 43.528 32.6902C35.3096 25.9296 26.5112 19.7426 17.1675 14.0956C16.5522 13.7236 15.6285 14.0524 15.0475 14.8622Z" fill="url(#paint0_linear_72_4404)"/>
<path opacity="0.3" d="M40.6142 39.2101C41.7584 37.8346 42.7786 36.3958 43.6345 34.8739C43.8327 34.5215 43.9329 34.1528 43.9482 33.8097C43.6386 34.1476 43.318 34.4709 42.9604 34.7312C41.6813 35.6631 39.9371 35.7473 38.4107 35.329C36.8844 34.9111 35.5234 34.0507 34.1877 33.2015C31.7317 31.6401 29.2328 30.0415 27.3776 27.7996C25.5223 25.5574 24.3833 22.524 25.0999 19.7037C25.142 19.5376 25.1904 19.3737 25.2437 19.2113C22.5973 17.4607 19.9089 15.7519 17.1679 14.0952C16.5526 13.7231 15.6289 14.0519 15.0475 14.8621C14.3938 15.7727 13.7319 16.8708 13.0667 18.0574C12.6294 18.837 12.6417 19.7123 13.1065 20.1686C20.0847 27.0111 28.7601 33.5308 38.5686 39.8344C39.1448 40.2042 40.0105 39.9361 40.6142 39.2101Z" fill="#5C3600"/>
<path d="M11.3318 1.05205C6.53068 7.81751 2.52445 14.3494 0.170096 20.3953C-0.180766 21.2967 0.0240904 22.2554 0.665476 22.7895C5.25499 26.6103 9.72718 30.0488 13.5677 31.437C14.3458 31.7182 15.2769 31.4117 15.9019 30.685C20.0217 25.894 24.437 19.8202 29.0004 13.1032C29.6801 12.1027 29.5893 10.8162 28.7914 10.1559C23.3907 5.68888 18.1043 1.53217 13.8187 0.0944519C12.9579 -0.194209 11.9411 0.193894 11.3318 1.05205Z" fill="url(#paint1_linear_72_4404)"/>
<path opacity="0.3" d="M29.1013 10.5022C28.9676 10.9398 28.8123 11.3704 28.6305 11.7894C27.4416 14.5308 25.307 16.8028 22.8003 18.4294C18.7874 21.0329 13.758 22.0214 9.05824 21.1294C6.2681 20.6001 3.6344 19.4492 0.946314 18.5266C0.672552 19.1538 0.410336 19.7777 0.170096 20.3949C-0.180766 21.2962 0.0240904 22.255 0.665476 22.7891C5.25499 26.6098 9.72718 30.0484 13.5677 31.4366C14.3458 31.7178 15.2769 31.4113 15.9019 30.6846C20.0218 25.8936 24.437 19.8198 29.0004 13.1027C29.5766 12.2554 29.5937 11.2054 29.1013 10.5022Z" fill="#5C3600"/>
<defs>
<linearGradient id="paint0_linear_72_4404" x1="50.2789" y1="-8.11107" x2="8.42317" y2="57.8177" gradientUnits="userSpaceOnUse">
<stop stop-color="#FFD188"/>
<stop offset="0.5" stop-color="#E58E0E"/>
<stop offset="1" stop-color="#5C3600"/>
</linearGradient>
<linearGradient id="paint1_linear_72_4404" x1="111.15" y1="-136.442" x2="-0.916215" y2="40.0779" gradientUnits="userSpaceOnUse">
<stop stop-color="#FFD188"/>
<stop offset="0.5" stop-color="#E58E0E"/>
<stop offset="1" stop-color="#5C3600"/>
</linearGradient>
</defs>
</svg>
