<svg width="38" height="40" viewBox="0 0 38 40" fill="none" xmlns="http://www.w3.org/2000/svg">
<path d="M26.8588 39.9929C18.8005 39.4971 11.3325 38.7235 4.83355 37.4929C3.31774 37.206 2.20325 36.0635 2.18401 34.7549C2.09727 28.7764 2.38956 22.5046 3.66674 16.087C3.93608 14.7342 5.37763 13.8192 7.00246 13.9369C14.5079 14.4797 22.7005 15.5338 30.1432 16.7755C31.7512 17.0438 32.9315 18.2761 32.8704 19.6546C32.597 25.84 31.551 31.8883 30.1267 37.904C29.8189 39.2048 28.433 40.0898 26.8588 39.9929Z" fill="url(#paint0_linear_72_4390)"/>
<path d="M17.3778 25.3807C11.3386 24.6774 10.9072 33.9214 11.0581 38.4924C13.8622 38.8877 16.8037 39.2049 19.8569 39.4581C21.2769 35.0494 23.3908 26.0811 17.3778 25.3807Z" fill="url(#paint1_linear_72_4390)"/>
<path d="M24.5031 32.1424C24.1358 32.0485 23.8827 31.7147 23.8888 31.3357C23.9161 29.6515 24.2327 25.1645 26.8343 25.34C29.4234 25.5148 28.8611 30.0872 28.5523 31.8264C28.4828 32.218 28.1405 32.5005 27.7429 32.5001C26.5859 32.4995 25.4954 32.3962 24.5031 32.1424Z" fill="url(#paint2_linear_72_4390)"/>
<path d="M5.49915 29.9291C5.13193 29.8352 4.8788 29.5014 4.88487 29.1224C4.91221 27.4382 5.2288 22.9508 7.83041 23.1263C10.4195 23.3012 9.85722 27.8736 9.54839 29.6128C9.47886 30.0043 9.13662 30.2868 8.73903 30.2868C7.58167 30.2862 6.49146 30.1829 5.49915 29.9291Z" fill="url(#paint3_linear_72_4390)"/>
<path opacity="0.3" d="M26.8589 39.993C28.4331 40.0898 29.819 39.2049 30.1268 37.904C31.5512 31.8884 32.5975 25.84 32.8705 19.6546C32.9313 18.2762 31.751 17.0439 30.1434 16.7756C29.2543 16.6274 28.3535 16.4823 27.4456 16.3398C27.4007 17.0493 27.5431 17.779 27.908 18.4791C29.2601 21.0712 29.0059 24.651 28.0025 27.3201C26.8951 30.266 24.636 32.7616 21.8147 34.1562C18.509 35.7902 14.6501 35.8911 10.9853 35.4827C8.03575 35.1539 5.12193 34.5234 2.17773 34.1755C2.17976 34.3689 2.18077 34.5626 2.18381 34.7557C2.20271 36.0642 3.31754 37.2067 4.83334 37.4936C11.3326 38.7235 18.8006 39.4975 26.8589 39.993Z" fill="#E58E0E"/>
<path d="M0.694618 14.599C5.77397 8.97966 11.5466 4.25538 18.0499 0.475148C19.4419 -0.333889 21.3391 -0.0901983 22.4559 1.05703C28.5681 7.33526 33.7251 13.4434 36.7321 19.1694C37.7193 21.0497 36.299 23.1667 33.9728 23.2517C24.96 23.5815 14.133 21.8294 2.61477 19.2842C0.236264 18.7583 -0.796211 16.2485 0.694618 14.599Z" fill="url(#paint4_linear_72_4390)"/>
<path opacity="0.2" d="M22.4557 1.0567C21.8968 0.482573 21.1421 0.134589 20.3533 0.0319824C20.9119 0.706349 21.4931 1.36721 22.0061 2.06656C22.9036 3.29007 23.743 4.55611 24.52 5.85928C25.3759 7.29476 26.1569 8.77478 26.8573 10.2923C28.0113 12.7923 28.8797 15.9474 27.1915 18.1228C26.3237 19.241 24.9209 19.8421 23.5182 20.0328C22.1155 20.2235 20.6918 20.0493 19.287 19.8755C13.1627 19.1164 7.03842 18.357 0.914102 17.5979C0.703826 17.5719 0.492538 17.5466 0.28125 17.5233C0.682562 18.3509 1.49733 19.0371 2.61419 19.2838C14.1324 21.8291 24.9594 23.5812 33.9722 23.2514C36.2984 23.1663 37.7187 21.0494 36.7315 19.1691C33.7248 13.443 28.5682 7.33492 22.4557 1.0567Z" fill="#CE4B17"/>
<defs>
<linearGradient id="paint0_linear_72_4390" x1="18.9569" y1="1.55702" x2="12.398" y2="106.988" gradientUnits="userSpaceOnUse">
<stop stop-color="#FFD188"/>
<stop offset="0.5" stop-color="#E58E0E"/>
<stop offset="1" stop-color="#5C3600"/>
</linearGradient>
<linearGradient id="paint1_linear_72_4390" x1="16.3952" y1="0.100114" x2="16.1685" y2="44.3663" gradientUnits="userSpaceOnUse">
<stop stop-color="#FFD188"/>
<stop offset="0.5" stop-color="#E58E0E"/>
<stop offset="1" stop-color="#5C3600"/>
</linearGradient>
<linearGradient id="paint2_linear_72_4390" x1="28.142" y1="9.45614" x2="25.7485" y2="37.2636" gradientUnits="userSpaceOnUse">
<stop stop-color="#FFD188"/>
<stop offset="0.5" stop-color="#E58E0E"/>
<stop offset="1" stop-color="#5C3600"/>
</linearGradient>
<linearGradient id="paint3_linear_72_4390" x1="9.13786" y1="7.24285" x2="6.74444" y2="35.0504" gradientUnits="userSpaceOnUse">
<stop stop-color="#FFD188"/>
<stop offset="0.5" stop-color="#E58E0E"/>
<stop offset="1" stop-color="#5C3600"/>
</linearGradient>
<linearGradient id="paint4_linear_72_4390" x1="18.6464" y1="-5.31162" x2="18.2729" y2="67.6245" gradientUnits="userSpaceOnUse">
<stop stop-color="#FFAA88"/>
<stop offset="0.5" stop-color="#CE4B17"/>
<stop offset="1" stop-color="#5C1700"/>
</linearGradient>
</defs>
</svg>
