<svg width="27" height="33" viewBox="0 0 27 33" fill="none" xmlns="http://www.w3.org/2000/svg">
<path d="M24.4229 17.8294C25.7699 23.378 22.364 28.9681 16.8151 30.3151C11.2663 31.6622 5.67637 28.2559 4.32939 22.7073L4.06641 21.624L24.16 16.7461L24.4229 17.8294Z" fill="url(#paint0_linear_72_4617)"/>
<path d="M4.11598 21.8282C5.46296 27.3768 11.0529 30.7831 16.6017 29.436C22.1506 28.089 25.5565 22.4989 24.2095 16.9503L24.16 16.7461L4.06641 21.624L4.11598 21.8282Z" fill="url(#paint1_linear_72_4617)"/>
<path d="M3.03906 5.29272L4.16203 9.91851L8.82755 10.7626L7.25142 4.27013L3.03906 5.29272Z" fill="url(#paint2_linear_72_4617)"/>
<path d="M17.5857 1.76176L13.373 2.78442L14.9492 9.2769L18.7086 6.38755L17.5857 1.76176Z" fill="url(#paint3_linear_72_4617)"/>
<path d="M7.25195 4.27002L8.82808 10.7625L12.2181 11.376L14.9493 9.27649L13.3732 2.78402L7.25195 4.27002Z" fill="url(#paint4_linear_72_4617)"/>
<path d="M18.1161 0.480109L1.97852 4.39771L2.50698 6.57459L18.6446 2.65699L18.1161 0.480109Z" fill="url(#paint5_linear_72_4617)"/>
<path d="M18.3798 1.56849L2.24219 5.48608L2.50639 6.5744L18.644 2.6568L18.3798 1.56849Z" fill="url(#paint6_linear_72_4617)"/>
<path d="M16.5517 29.2322C22.1004 27.8852 25.5065 22.2952 24.1595 16.7465C22.8125 11.1978 17.2224 7.79166 11.6737 9.13867C6.12505 10.4857 2.71892 16.0757 4.06592 21.6244C5.41293 27.1731 11.003 30.5792 16.5517 29.2322Z" fill="url(#paint7_linear_72_4617)"/>
<path d="M11.6748 9.13874C10.8823 9.33112 10.1355 9.61269 9.43811 9.96551L23.7613 22.8983C24.4929 21.0017 24.6764 18.8714 24.1605 16.7463C24.0118 16.1339 23.8087 15.5492 23.5623 14.9925L17.3214 9.35713C15.5555 8.77913 13.6128 8.66826 11.6748 9.13874Z" fill="url(#paint8_linear_72_4617)"/>
<path d="M5.81951 13.016C4.18317 15.2189 3.43319 18.0546 3.92719 20.9277L13.4238 29.5023C14.4493 29.571 15.5024 29.4871 16.5543 29.2318C18.3115 28.8052 19.8526 27.952 21.0974 26.8107L5.81951 13.016Z" fill="url(#paint9_linear_72_4617)"/>
<path d="M16.0588 27.2021C20.4861 26.1273 23.2039 21.667 22.1291 17.2397C21.0543 12.8124 16.594 10.0946 12.1667 11.1694C7.73942 12.2442 5.02167 16.7045 6.09644 21.1318C7.17122 25.5591 11.6315 28.2768 16.0588 27.2021Z" fill="url(#paint10_linear_72_4617)"/>
<path d="M15.9719 26.8461C20.2028 25.819 22.7999 21.5566 21.7728 17.3258C20.7458 13.0949 16.4833 10.4977 12.2525 11.5248C8.02159 12.5519 5.42442 16.8143 6.45151 21.0452C7.4786 25.2761 11.741 27.8732 15.9719 26.8461Z" fill="#E86B05"/>
<path d="M15.8582 26.375C19.829 25.4111 22.2665 21.4107 21.3026 17.4399C20.3386 13.4691 16.3382 11.0316 12.3675 11.9956C8.39668 12.9595 5.95917 16.9599 6.92312 20.9307C7.88707 24.9015 11.8875 27.339 15.8582 26.375Z" fill="url(#paint11_linear_72_4617)"/>
<path d="M17.7755 16.0118L15.3695 16.1199L13.7342 14.3492C13.1414 13.7082 12.4665 13.872 12.2335 14.7135L11.5921 17.0368L9.40432 18.044C8.60957 18.4099 8.55663 19.1033 9.28598 19.5856L11.2969 20.913L11.5787 23.3053C11.6813 24.1738 12.3243 24.4385 13.0083 23.8937L14.8919 22.3917L17.2546 22.8629C18.1122 23.0334 18.5623 22.5034 18.2553 21.6845L17.968 20.9186L17.4088 19.4292L18.5873 17.3276C19.0146 16.5646 18.6496 15.9725 17.7755 16.0118Z" fill="url(#paint12_linear_72_4617)"/>
<path d="M17.7777 16.012L16.2148 16.082L18.255 17.9244L18.5897 17.3277C19.0167 16.5647 18.6517 15.9727 17.7777 16.012Z" fill="url(#paint13_linear_72_4617)"/>
<path d="M16.5745 22.7266L10.7192 17.4394L9.40651 18.0438C8.61175 18.4096 8.55882 19.103 9.28816 19.5853L11.299 20.9127L11.5809 23.305C11.6835 24.1735 12.3265 24.4382 13.0105 23.8934L14.8941 22.3914L16.5745 22.7266Z" fill="url(#paint14_linear_72_4617)"/>
<defs>
<linearGradient id="paint0_linear_72_4617" x1="9.27837" y1="16.5664" x2="23.9424" y2="29.5522" gradientUnits="userSpaceOnUse">
<stop stop-color="#FFA705"/>
<stop offset="0.4495" stop-color="#FF9605"/>
<stop offset="1" stop-color="#FF8605"/>
</linearGradient>
<linearGradient id="paint1_linear_72_4617" x1="16.0785" y1="27.2809" x2="14.6037" y2="21.2058" gradientUnits="userSpaceOnUse">
<stop stop-color="#FFEA05"/>
<stop offset="0.591" stop-color="#FFCB05"/>
<stop offset="1" stop-color="#FFBB05"/>
</linearGradient>
<linearGradient id="paint2_linear_72_4617" x1="6.70514" y1="11.2071" x2="5.4549" y2="6.0571" gradientUnits="userSpaceOnUse">
<stop stop-color="#F03A3A"/>
<stop offset="0.6363" stop-color="#CA2525"/>
<stop offset="1" stop-color="#BA1C1C"/>
</linearGradient>
<linearGradient id="paint3_linear_72_4617" x1="17.0392" y1="8.69882" x2="15.789" y2="3.54876" gradientUnits="userSpaceOnUse">
<stop stop-color="#F03A3A"/>
<stop offset="0.6363" stop-color="#CA2525"/>
<stop offset="1" stop-color="#BA1C1C"/>
</linearGradient>
<linearGradient id="paint4_linear_72_4617" x1="11.6921" y1="9.20964" x2="10.4344" y2="4.0289" gradientUnits="userSpaceOnUse">
<stop stop-color="white"/>
<stop offset="0.2747" stop-color="#E4E7EC"/>
<stop offset="0.7546" stop-color="#B9C1CE"/>
<stop offset="1" stop-color="#A9B2C2"/>
</linearGradient>
<linearGradient id="paint5_linear_72_4617" x1="1.66756" y1="5.62565" x2="18.1728" y2="1.61881" gradientUnits="userSpaceOnUse">
<stop stop-color="#FFEA05"/>
<stop offset="0.591" stop-color="#FFCB05"/>
<stop offset="1" stop-color="#FFBB05"/>
</linearGradient>
<linearGradient id="paint6_linear_72_4617" x1="10.8902" y1="5.91334" x2="10.3864" y2="3.8381" gradientUnits="userSpaceOnUse">
<stop stop-color="#FFEA05"/>
<stop offset="0.591" stop-color="#FFCB05"/>
<stop offset="1" stop-color="#FFBB05"/>
</linearGradient>
<linearGradient id="paint7_linear_72_4617" x1="6.86709" y1="12.7691" x2="24.5393" y2="28.4187" gradientUnits="userSpaceOnUse">
<stop stop-color="#FFEA05"/>
<stop offset="0.591" stop-color="#FFCB05"/>
<stop offset="1" stop-color="#FFBB05"/>
</linearGradient>
<linearGradient id="paint8_linear_72_4617" x1="13.9892" y1="20.2621" x2="19.7092" y2="11.8694" gradientUnits="userSpaceOnUse">
<stop stop-color="white"/>
<stop offset="1" stop-color="white" stop-opacity="0"/>
</linearGradient>
<linearGradient id="paint9_linear_72_4617" x1="7.24242" y1="27.8134" x2="12.4592" y2="21.1834" gradientUnits="userSpaceOnUse">
<stop stop-color="white"/>
<stop offset="1" stop-color="white" stop-opacity="0"/>
</linearGradient>
<linearGradient id="paint10_linear_72_4617" x1="19.328" y1="23.6936" x2="4.43333" y2="10.8192" gradientUnits="userSpaceOnUse">
<stop stop-color="#FFEA05"/>
<stop offset="0.591" stop-color="#FFCB05"/>
<stop offset="1" stop-color="#FFBB05"/>
</linearGradient>
<linearGradient id="paint11_linear_72_4617" x1="8.92766" y1="14.5935" x2="21.5744" y2="25.7929" gradientUnits="userSpaceOnUse">
<stop stop-color="#FFA705"/>
<stop offset="0.4495" stop-color="#FF9605"/>
<stop offset="1" stop-color="#FF8605"/>
</linearGradient>
<linearGradient id="paint12_linear_72_4617" x1="17.5587" y1="22.141" x2="8.68141" y2="14.4678" gradientUnits="userSpaceOnUse">
<stop stop-color="#FFEA05"/>
<stop offset="0.591" stop-color="#FFCB05"/>
<stop offset="1" stop-color="#FFBB05"/>
</linearGradient>
<linearGradient id="paint13_linear_72_4617" x1="16.7396" y1="17.7295" x2="17.9309" y2="15.9816" gradientUnits="userSpaceOnUse">
<stop stop-color="white"/>
<stop offset="1" stop-color="white" stop-opacity="0"/>
</linearGradient>
<linearGradient id="paint14_linear_72_4617" x1="15.329" y1="16.3266" x2="11.5271" y2="22.5661" gradientUnits="userSpaceOnUse">
<stop stop-color="white"/>
<stop offset="1" stop-color="white" stop-opacity="0"/>
</linearGradient>
</defs>
</svg>
