<svg width="30" height="40" viewBox="0 0 30 40" fill="none" xmlns="http://www.w3.org/2000/svg">
<path d="M4.40973 10.0272L1.92773 8.86395C8.2191 8.432 14.9015 2.52692 17.1645 0L15.9152 3.53478C14.9111 5.2016 10.6845 11.3248 4.40973 10.0272Z" fill="#FDD616"/>
<path d="M2.72142 22.9579L0 24.9728L1.92793 8.86401L4.40992 10.0272L2.72142 22.9579Z" fill="#FFAF0F"/>
<path d="M15.916 3.53478L17.1653 0C19.0187 4.74715 20.7905 8.35175 27.3149 11.9913L23.0969 12.2841C17.2867 11.1588 17.257 8.52632 15.916 3.53478Z" fill="#FFAF0F"/>
<path d="M8.42166 36.5862L10.2655 39.9999L1.61321 28.0184L0 24.9727L8.42166 36.5862Z" fill="#BA5400"/>
<path d="M22.0794 28.6587L24.1074 31.8967L10.2657 40.0001L8.42188 36.5864L22.0794 28.6587Z" fill="#D86A07"/>
<path d="M27.3132 11.9912L29.2925 14.7866L24.1062 31.8965L22.0781 28.6585L27.3132 11.9912Z" fill="#E57E17"/>
<path d="M9.07401 31.4629L8.42165 36.5863L0 24.9727L2.72142 22.9578L9.07401 31.4629Z" fill="#E57E17"/>
<path d="M23.096 12.284L27.314 11.9912L22.0788 28.6585L19.2129 25.6302L23.096 12.284Z" fill="#FDD616"/>
<path d="M15.9147 3.53467C15.9387 6.78476 20.1329 11.3641 23.3659 12.375L19.2124 25.6301L9.07329 31.4627L2.7207 22.9576L4.31207 10.0305C8.40968 9.88345 12.724 7.28347 15.9147 3.53467Z" fill="#0865C1"/>
<path d="M3.52539 22.6891L4.96073 10.7237C6.87939 10.5444 8.85159 9.88076 10.8215 8.75104C12.4552 7.81416 14.0312 6.57275 15.4375 5.12476C16.3446 8.15171 19.5497 11.5504 22.4056 12.824L18.5405 25.0346L9.28601 30.3482L3.52539 22.6891Z" fill="#2197F9"/>
<path d="M19.2134 25.6304L22.0794 28.6587L8.42188 36.5864L9.07423 31.463L19.2134 25.6304Z" fill="#FFAF0F"/>
<g opacity="0.3">
<path d="M7.28165 10.2769C6.50098 10.5021 5.72594 10.6523 4.96041 10.7239L4.73438 12.6079C7.79468 15.5973 13.7744 21.1159 18.2452 25.2041L18.5401 25.0347L19.7669 21.159L7.28165 10.2769Z" fill="white"/>
<path d="M12.8521 7.40771C12.2303 7.87524 11.5925 8.30065 10.9453 8.67858L21.0172 17.21L21.7702 14.8313L12.8521 7.40771Z" fill="white"/>
</g>
</svg>
