<svg width="37" height="41" viewBox="0 0 37 41" fill="none" xmlns="http://www.w3.org/2000/svg">
<path d="M33.6069 37.5901L32.1901 32.0882C32.1901 30.8027 27.696 29.7605 22.1523 29.7605C16.6086 29.7605 12.1148 30.8027 12.1145 32.0882L10.6977 37.5901C10.6429 37.7 10.6113 37.8119 10.6113 37.9252C10.6113 39.4617 15.7782 40.7074 22.1523 40.7074C28.5264 40.7074 33.6933 39.4617 33.6933 37.9252C33.6933 37.8119 33.6617 37.7002 33.6069 37.5901Z" fill="#D92F0D"/>
<path opacity="0.81" d="M13.127 31.0679C15.1514 32.7652 23.7349 32.7822 24.7716 31.8099C25.8084 30.8373 18.2591 29.7607 18.2591 29.7607C18.2591 29.7607 14.3136 30.2904 13.127 31.0679Z" fill="#A711F7"/>
<path opacity="0.81" d="M33.6069 37.5901L33.5459 37.3533C32.3973 39.4901 24.7548 40.2037 18.6022 39.7743C18.5308 39.3009 18.6837 38.4466 18.9195 36.9535C19.1197 35.6859 19.1029 34.7348 19.6252 34.4281C19.6664 34.4039 19.6481 34.3419 19.6005 34.3412C16.934 34.299 12.9647 33.0256 12.9647 33.0256C12.9647 33.0256 12.1876 36.7879 11.6713 38.4034C11.1874 38.16 10.8486 37.8886 10.6977 37.5901C10.6429 37.7 10.6113 37.8118 10.6113 37.9251C10.6113 38.2953 10.9135 38.6481 11.4577 38.9711L11.4575 38.9718C13.0916 40.3437 19.4943 40.7074 19.4943 40.7074C19.4943 40.7074 19.4313 40.677 19.3397 40.6237C20.2402 40.678 21.1819 40.7074 22.1526 40.7074C28.5264 40.7074 33.6936 39.4617 33.6936 37.9251C33.6933 37.8118 33.6617 37.7002 33.6069 37.5901Z" fill="#A711F7"/>
<path d="M32.1521 32.2814C32.2202 31.5767 31.1197 31.0456 30.9168 30.9538C30.9057 30.9491 30.8941 30.9446 30.8829 30.9402C33.1627 32.5693 23.9318 34.3641 21.7188 34.4444C25.7262 34.299 26.8987 33.9523 27.2333 34.6918C27.5558 35.4046 28.2536 38.5271 28.319 39.4701C29.9506 39.2251 31.3496 38.8639 32.3099 38.3864C31.8395 36.8661 31.1486 33.479 31.1486 33.2656C31.1484 32.9992 32.0792 33.0572 32.1521 32.2814Z" fill="#F08E5D"/>
<path d="M22.153 40.9174C16.4564 40.9174 10.4023 39.8688 10.4023 37.9253C10.4023 37.7918 10.4354 37.6545 10.5006 37.5174L11.906 32.0597C11.9668 30.4298 17.2139 29.5508 22.153 29.5508C27.092 29.5508 32.3394 30.4298 32.4001 32.0597L33.8055 37.5174C33.8707 37.6547 33.9038 37.7918 33.9038 37.9253C33.9038 39.8686 27.8495 40.9174 22.153 40.9174ZM22.153 29.9705C16.3614 29.9705 12.3253 31.0866 12.3253 32.0883C12.3253 32.1058 12.3231 32.1236 12.3186 32.1407L10.9018 37.6426C10.8981 37.657 10.893 37.6708 10.8863 37.6839C10.8431 37.7705 10.8221 37.8495 10.8221 37.9253C10.8221 39.1419 15.4754 40.4974 22.153 40.4974C28.8305 40.4974 33.4841 39.1419 33.4841 37.9253C33.4841 37.8495 33.4631 37.7705 33.4199 37.6839C33.4135 37.6708 33.4083 37.657 33.4043 37.6426L31.9875 32.1407C31.9831 32.1236 31.9809 32.1058 31.9809 32.0883C31.9809 31.0866 27.9448 29.9705 22.153 29.9705Z" fill="#571C0D"/>
<path d="M17.1508 30.6481C16.8093 30.5397 16.3585 30.3419 15.9222 30.0903C11.4654 27.5212 10.0686 20.0629 12.2348 13.1046C14.4009 6.14635 19.7844 0.798696 24.9118 1.21351C25.5303 1.04487 29.915 2.59573 29.915 2.59573C34.9385 4.22734 37.4878 11.6444 34.8424 20.1426C32.2313 28.5298 26.052 33.1777 20.9046 31.8108L17.1508 30.6481Z" fill="url(#paint0_linear_72_4548)"/>
<path d="M30.9336 5.55005C31.979 6.31079 33.7714 6.93449 33.8166 5.67425C35.3351 8.06412 36.0363 14.3096 36.0363 14.3096C36.0363 14.3096 34.3129 12.2384 32.4158 13.7138C32.7724 8.05943 30.9336 5.55005 30.9336 5.55005Z" fill="#FFE815"/>
<path opacity="0.25" d="M27.0834 26.9458L15.6348 29.9105C15.7301 29.9717 15.8249 30.0337 15.9232 30.0905C16.3595 30.3421 16.8106 30.5396 17.1518 30.6483L20.9056 31.8113C25.3 32.9782 30.4444 29.7592 33.4807 23.5747C32.4896 25.5537 28.5612 28.0456 27.0834 26.9458Z" fill="#CE05ED"/>
<path d="M31.3967 19.0701C28.4898 28.4073 21.1609 33.1101 15.9222 30.0903C11.4654 27.5212 10.0686 20.0629 12.2348 13.1046C14.4009 6.14635 19.7844 0.798696 24.9118 1.21351C30.9389 1.70092 34.3036 9.73277 31.3967 19.0701Z" fill="url(#paint1_linear_72_4548)"/>
<path d="M28.0779 18.63C25.985 25.3527 20.8813 29.0498 17.1354 27.1231C13.8142 25.4147 12.7497 19.7853 14.4319 14.3819C16.1142 8.9784 20.1858 4.94803 23.89 5.42679C28.0672 5.96654 30.1707 11.9073 28.0779 18.63Z" fill="white"/>
<path d="M21.752 27.288C21.7972 27.6635 21.1676 28.048 20.3456 28.1467C19.5236 28.2455 18.8209 28.021 18.7757 27.6455C18.7305 27.2699 19.3602 26.8855 20.1821 26.7867C21.0041 26.688 21.7068 26.9124 21.752 27.288Z" fill="white"/>
<path opacity="0.69" d="M29.0404 3.04784C29.0138 3.02339 28.9878 2.99796 28.9612 2.97401C28.8686 2.89129 28.7735 2.81302 28.6777 2.73574C28.635 2.70117 28.5928 2.66611 28.5493 2.63253C28.4614 2.56463 28.3715 2.50018 28.2812 2.43673C28.2269 2.3987 28.1725 2.36068 28.1172 2.32413C28.0323 2.26808 27.9464 2.21426 27.8594 2.16216C27.7952 2.12364 27.7306 2.08611 27.6651 2.04981C27.5827 2.00389 27.4994 1.95919 27.4152 1.91673C27.3419 1.87969 27.2678 1.84487 27.1933 1.8108C27.113 1.77401 27.0325 1.73747 26.9508 1.70364C26.8683 1.66956 26.7846 1.63895 26.7007 1.60808C26.6231 1.57969 26.5459 1.55055 26.4673 1.52512C26.374 1.49475 26.279 1.46882 26.1841 1.44265C26.1115 1.42265 26.0397 1.40068 25.9661 1.38315C25.8555 1.35673 25.7429 1.33549 25.6303 1.3145C25.5693 1.30315 25.5093 1.28882 25.4478 1.27895C25.272 1.2508 25.094 1.22882 24.9133 1.21401C24.7612 1.20166 24.6088 1.19524 24.4562 1.19302C24.4041 1.19228 24.352 1.1945 24.2999 1.19475C24.1997 1.19549 24.0997 1.19648 23.9994 1.20166C23.936 1.20487 23.8723 1.21055 23.8088 1.21549C23.7204 1.22216 23.632 1.22932 23.5436 1.2392C23.4743 1.2471 23.4046 1.25673 23.3352 1.2666C23.2535 1.27796 23.1718 1.29031 23.0901 1.30463C23.0162 1.31747 22.9422 1.33154 22.8683 1.34636C22.7923 1.36191 22.7162 1.3787 22.6402 1.39623C22.5617 1.4145 22.4834 1.43327 22.4051 1.45401C22.336 1.47228 22.2669 1.49253 22.1977 1.51253C22.1138 1.53697 22.0296 1.56142 21.9459 1.58858C21.8873 1.60759 21.8291 1.62858 21.7708 1.64882C21.677 1.68142 21.5829 1.71352 21.4896 1.74957C21.4602 1.76092 21.4313 1.77376 21.4019 1.78512C20.8762 1.99327 20.3562 2.25228 19.8461 2.55944C19.8286 2.57006 19.811 2.57994 19.7938 2.59055C19.6743 2.66339 19.5555 2.7392 19.4372 2.81697C19.4165 2.83055 19.3957 2.84389 19.375 2.85771C19.257 2.93648 19.1397 3.01771 19.0229 3.10117C19.0039 3.11475 18.9846 3.12858 18.9656 3.14241C18.8461 3.22883 18.7273 3.31771 18.6096 3.40932C18.5967 3.4192 18.5841 3.42932 18.5713 3.43944C18.4471 3.53648 18.3236 3.63574 18.2012 3.73821C18.8066 5.98389 19.977 7.80833 21.677 8.78808C24.6012 10.4735 28.2962 9.30561 31.1733 6.0424C30.6187 4.84858 29.8982 3.83574 29.0404 3.04784Z" fill="#FEDF12"/>
<path d="M19.3694 31.1887C19.0368 31.1887 18.7044 31.1668 18.3733 31.1218C18.2718 31.108 18.201 31.0149 18.2146 30.9134C18.2284 30.812 18.3225 30.7413 18.423 30.7547C18.7388 30.7974 19.0565 30.8184 19.3741 30.8184C24.1644 30.8189 29.0338 26.0396 31.2207 19.0149C33.4928 11.7169 31.9602 4.64825 27.577 2.20726C27.4876 2.15738 27.4555 2.04479 27.5054 1.95541C27.5553 1.86602 27.6679 1.83368 27.7573 1.88356C32.2928 4.40924 33.8983 11.6603 31.5746 19.125C29.3388 26.3063 24.3229 31.1885 19.3694 31.1887Z" fill="#E39400"/>
<path d="M28.2584 18.0929C26.1826 24.7608 20.9597 28.3778 17.0681 26.4119C13.6174 24.6687 12.4471 19.0494 14.1155 13.6902C15.7839 8.33067 19.937 4.3687 23.7673 4.89215C28.0873 5.48252 30.3342 11.425 28.2584 18.0929Z" fill="url(#paint2_linear_72_4548)"/>
<path opacity="0.68" d="M17.7105 26.6126C14.2599 24.8694 13.0895 19.2502 14.7579 13.8909C16.4263 8.53166 20.5794 4.56944 24.4098 5.09289C24.5816 5.11635 24.7491 5.15141 24.9145 5.19141C24.551 5.0482 24.1683 4.94672 23.7673 4.89215C19.937 4.3687 15.7839 8.33067 14.1155 13.6902C12.4471 19.0497 13.6174 24.6689 17.0681 26.4119C17.4241 26.5919 17.7915 26.724 18.1666 26.8122C18.0128 26.7529 17.8604 26.6884 17.7105 26.6126Z" fill="#AE21C4"/>
<path opacity="0.68" d="M26.1633 17.4949C24.852 21.7075 21.5591 24.1489 19.0053 23.0341C16.6458 22.0043 15.7821 18.2665 16.9181 14.6168C18.0542 10.9672 20.887 8.3803 23.4142 8.87166C26.1497 9.40326 27.4749 13.2823 26.1633 17.4949Z" fill="#AE21C4"/>
<path d="M25.3703 17.1941C24.059 21.4067 20.7662 23.8482 18.2123 22.7333C15.8528 21.7035 14.9891 17.9657 16.1252 14.3161C17.2615 10.6664 20.0941 8.07952 22.6212 8.57088C25.3565 9.10248 26.6817 12.9815 25.3703 17.1941Z" fill="url(#paint3_linear_72_4548)"/>
<path d="M22.1922 16.4452C21.5863 18.3913 20.068 19.5886 18.8443 19.1355C17.6663 18.6992 17.2016 16.8844 17.7673 15.0676C18.333 13.2509 19.7455 12.0205 20.9628 12.3299C22.2275 12.6513 22.7981 14.499 22.1922 16.4452Z" fill="url(#paint4_linear_72_4548)"/>
<path opacity="0.68" d="M18.4749 15.2879C18.9967 13.6121 20.2389 12.4383 21.3838 12.5086C21.2537 12.4294 21.1137 12.3681 20.9628 12.3299C19.7453 12.0205 18.3327 13.2509 17.7673 15.0676C17.2016 16.8844 17.6663 18.699 18.8443 19.1353C18.99 19.1894 19.1399 19.2183 19.292 19.2269C18.3095 18.6348 17.9532 16.9634 18.4749 15.2879Z" fill="#AE21C4"/>
<path d="M17.9812 22.01C17.2779 21.7134 16.6886 21.2233 16.2246 20.5974C16.6624 21.589 17.3337 22.3495 18.2132 22.7334C20.7668 23.8482 24.0599 21.4068 25.3713 17.1942C25.3878 17.1413 25.4019 17.0885 25.4177 17.0356C24.1256 20.9835 20.7288 23.1682 17.9812 22.01Z" fill="white"/>
<path opacity="0.68" d="M19.8435 17.254L11.7969 24.0848C11.7969 24.0848 10.6144 18.3725 11.804 14.7056C15.9339 15.0125 19.8435 17.254 19.8435 17.254Z" fill="#AE21C4"/>
<path d="M9.55493 6.80012C9.09764 5.81345 4.24258 3.1774 3.68554 4.23444C3.46159 4.65962 3.8132 6.28259 4.05295 7.24851L3.2248 6.8974C2.90875 6.78975 2.26283 7.84728 1.78209 9.25938C1.30135 10.6715 1.16801 11.9036 1.48406 12.0112L2.35443 12.2384C1.57517 12.8574 0.306286 13.9288 0.22431 14.4023C0.0206067 15.5796 5.47567 16.4532 6.44011 15.9502C7.14826 15.5811 8.02604 14.4191 8.44283 13.8275L13.0838 15.0389C12.7668 16.6305 12.8631 17.8512 13.3969 18.033C13.469 18.0574 13.5463 18.0614 13.6278 18.0475C16.2927 18.1853 19.8453 17.2537 19.8453 17.2537C20.0626 17.3275 20.4905 16.647 20.8016 15.7337C21.1125 14.8204 21.1885 14.0199 20.9715 13.9458C20.9715 13.9458 18.7251 11.0401 16.5295 9.52357C16.4734 9.46283 16.4097 9.41864 16.3376 9.39419C15.8038 9.21246 14.9826 10.1209 14.2628 11.5754L9.84678 9.70382C9.8774 8.98086 9.89073 7.52456 9.55493 6.80012Z" fill="url(#paint5_linear_72_4548)"/>
<path opacity="0.4" d="M14.388 16.0575C14.388 16.0575 15.3591 14.175 14.6895 14.0745C14.0199 13.974 2.43319 10.8261 2.6527 9.59326L1.40208 10.674C1.26381 11.414 1.28158 11.9424 1.48356 12.011L2.35393 12.2382C2.32035 12.2649 8.37492 13.9231 8.44233 13.8273L13.0833 15.0387C13.0431 15.2404 13.0097 15.4362 12.9828 15.6249L14.388 16.0575Z" fill="#AE21C4"/>
<path d="M3.07826 7.17901C3.27431 7.24568 3.08345 8.32667 2.65233 9.59358C2.22122 10.8605 1.71258 11.8333 1.51653 11.7667C1.32048 11.7 1.51135 10.619 1.94246 9.3521C2.37382 8.08518 2.88221 7.11235 3.07826 7.17901Z" fill="#FFE815"/>
<path d="M14.256 11.5845L15.0723 11.9305C15.2701 11.9979 15.1772 12.7961 14.8649 13.7137C14.5526 14.6312 14.139 15.3203 13.9412 15.2532L13.0834 15.0292C12.7639 16.6258 12.8597 17.851 13.3945 18.0332C14.1143 18.2781 15.356 16.5431 16.1681 14.1574C16.9802 11.7719 17.055 9.63935 16.3353 9.39442C15.8005 9.21219 14.977 10.1245 14.256 11.5845Z" fill="#FFE815"/>
<path opacity="0.4" d="M14.3008 15.2576L12.9082 16.8877L13.0835 15.0391L14.3008 15.2576Z" fill="#AE21C4"/>
<path d="M13.9663 15.4425C13.9384 15.4425 13.9102 15.4378 13.8823 15.4284L12.906 15.1741C12.807 15.1484 12.7477 15.0472 12.7737 14.9482C12.7993 14.8492 12.9003 14.7894 12.9996 14.8158L13.963 15.0674C14.0798 14.9889 14.3966 14.5166 14.6902 13.6541C14.9843 12.7906 15.0211 12.2225 14.9761 12.0901L14.0596 11.7022C13.9655 11.6622 13.9213 11.5536 13.9613 11.4595C14.0013 11.3652 14.1107 11.3217 14.204 11.3613L15.1453 11.76C15.6277 11.924 15.1877 13.3427 15.0411 13.7734C14.9023 14.1798 14.4342 15.4425 13.9663 15.4425ZM13.9823 15.0724L13.9885 15.0741C13.9868 15.0734 13.9845 15.0726 13.9823 15.0724ZM14.9996 12.1C15.0038 12.102 15.0082 12.104 15.0132 12.1057L14.9996 12.1Z" fill="#BD5100"/>
<path d="M4.51514 12.9331C4.47761 12.9331 4.43983 12.9217 4.40699 12.898C4.32403 12.8383 4.30526 12.7225 4.36502 12.6395C4.63514 12.2647 5.01711 11.4133 5.3381 10.4704C5.66427 9.51183 5.88131 8.59751 5.89094 8.14122C5.89316 8.03875 5.9707 7.9585 6.08008 7.95998C6.18255 7.9622 6.26353 8.0469 6.26131 8.14912C6.25069 8.64813 6.03143 9.58319 5.68872 10.5899C5.35168 11.5795 4.95958 12.4479 4.66551 12.8563C4.62921 12.9064 4.57267 12.9331 4.51514 12.9331Z" fill="#BD5100"/>
<path d="M8.43976 14.0128C8.4242 14.0128 8.40865 14.0108 8.39285 14.0069L2.30445 12.4175C2.20544 12.3918 2.14618 12.2906 2.1721 12.1916C2.19778 12.0926 2.29828 12.0328 2.39803 12.0592L8.48642 13.6486C8.58544 13.6743 8.6447 13.7755 8.61877 13.8745C8.59704 13.9578 8.52198 14.0128 8.43976 14.0128Z" fill="#BD5100"/>
<path d="M9.84589 9.88927C9.82169 9.88927 9.79725 9.88458 9.77379 9.87445L3.98021 7.41915C3.88613 7.37915 3.84194 7.2705 3.88194 7.17643C3.92194 7.08211 4.03083 7.0384 4.12465 7.07816L9.91823 9.53347C10.0123 9.57347 10.0565 9.68211 10.0165 9.77618C9.98663 9.8468 9.91799 9.88927 9.84589 9.88927Z" fill="#BD5100"/>
<path d="M3.93555 4.28794C4.00567 5.29016 8.89727 7.31485 9.50468 7.12127C10.1123 6.92794 5.33703 3.68646 3.93555 4.28794Z" fill="#FFE815"/>
<path d="M14.1947 18.2471C14.0053 18.2471 13.8186 18.2429 13.6354 18.2338C13.5295 18.2486 13.4285 18.2404 13.3354 18.2086C12.726 18.0012 12.5542 16.872 12.8673 15.1745L8.51787 14.0392C8.0438 14.7017 7.21812 15.7525 6.5238 16.1148C5.64873 16.5711 1.68775 16.0246 0.450709 15.1214C0.132191 14.8888 -0.00608021 14.6365 0.0398457 14.3711C0.105772 13.9911 0.747746 13.3032 1.94972 12.3246L1.4354 12.1903C1.16849 12.0999 1.07886 11.7461 1.14824 11.1046C1.20602 10.5715 1.36799 9.89525 1.60478 9.1997C1.70009 8.91994 2.55491 6.47377 3.28256 6.72192L3.78454 6.93426C3.42923 5.42562 3.34009 4.48883 3.51985 4.1476C3.64528 3.90932 3.90577 3.79105 4.30306 3.80364C5.83441 3.84266 9.30577 5.82587 9.72083 6.72167C10.0502 7.43229 10.0628 8.76858 10.0347 9.58291L14.1734 11.337C14.9608 9.80068 15.7858 9.01155 16.3954 9.21846C16.4882 9.25006 16.5734 9.30488 16.6485 9.38167C18.7366 10.8301 20.8226 13.457 21.0902 13.7992C21.3238 13.9451 21.2816 14.3888 21.267 14.5422C21.2337 14.8938 21.13 15.338 20.9749 15.793C20.8201 16.2481 20.6312 16.6634 20.4431 16.9622C20.3611 17.0928 20.1238 17.4715 19.8497 17.4429C19.4594 17.5436 16.6285 18.2471 14.1947 18.2471ZM13.626 17.8627C13.6292 17.8627 13.6324 17.8629 13.6354 17.8629C16.2408 17.9975 19.7613 17.0841 19.7964 17.0748C19.8223 17.0683 19.8487 17.0669 19.8747 17.0713C19.9929 17.0115 20.3258 16.5513 20.6243 15.674C20.9231 14.7967 20.9398 14.2288 20.8828 14.1096C20.8596 14.0972 20.8391 14.0799 20.8228 14.0592C20.8006 14.0303 18.5682 11.1585 16.4221 9.67599C16.411 9.66834 16.4008 9.65945 16.3915 9.64957C16.3547 9.60957 16.3166 9.58365 16.2759 9.56957C15.9305 9.4513 15.1823 10.1306 14.4268 11.6577C14.3831 11.7456 14.2789 11.7844 14.1885 11.7461L9.77244 9.87451C9.70133 9.84439 9.65639 9.77328 9.6596 9.69624C9.68577 9.08315 9.7112 7.58167 9.38478 6.87797C9.0596 6.17599 5.76997 4.21204 4.29343 4.17451C4.12676 4.16883 3.91515 4.19229 3.8475 4.32068C3.73836 4.52809 3.78157 5.39426 4.23071 7.20389C4.2475 7.27204 4.22454 7.34365 4.1712 7.38932C4.11787 7.435 4.04355 7.44636 3.97861 7.41895L3.17046 7.07649C2.98997 7.1197 2.44256 7.88784 1.95515 9.3192C1.46799 10.7503 1.43293 11.693 1.54948 11.8375L2.39886 12.0592C2.46676 12.077 2.51886 12.1313 2.53318 12.2002C2.54775 12.2688 2.52207 12.3397 2.46701 12.3834C1.00701 13.5432 0.444044 14.2032 0.404291 14.434C0.379599 14.5772 0.534167 14.7241 0.668488 14.8222C1.86108 15.693 5.66552 16.1439 6.35194 15.7861C7.0396 15.4276 7.93565 14.2224 8.28898 13.7209C8.33367 13.658 8.41244 13.6283 8.48725 13.6486L13.128 14.8599C13.2228 14.8846 13.2818 14.9792 13.2628 15.0753C12.93 16.7461 13.1073 17.7397 13.4539 17.858C13.4949 17.872 13.5408 17.8743 13.5944 17.8651C13.6055 17.8634 13.6156 17.8627 13.626 17.8627Z" fill="#A83500"/>
<path d="M22.7465 32.1631C22.1047 32.1631 21.4714 32.0819 20.8526 31.9177L17.0907 30.7525C16.7052 30.63 16.2423 30.4201 15.8193 30.1759C11.7865 27.8512 10.046 21.5317 11.5551 14.7606L8.52917 13.9707C8.05213 14.6357 7.2304 15.6782 6.53633 16.0401C5.65682 16.4989 1.6788 15.9515 0.437319 15.0446C0.110653 14.8061 -0.0308287 14.5456 0.0168256 14.27C0.0422577 14.1238 0.116579 13.6947 1.89757 12.2396L1.43016 12.1177C0.666209 11.8582 1.4867 9.37717 1.5825 9.09519C1.67855 8.81322 2.54152 6.3463 3.29164 6.60211L3.75041 6.79643C3.2267 4.55667 3.42967 4.17124 3.49905 4.03988C3.62917 3.79272 3.90275 3.67124 4.30473 3.68285C5.84176 3.72186 9.3272 5.71519 9.74423 6.61519C10.0736 7.32532 10.0887 8.65248 10.0608 9.4705L12.884 10.667C15.5297 4.56458 20.4442 0.566056 24.9018 0.905562C25.6556 0.789266 29.2511 2.04137 29.9845 2.30038C35.384 4.05692 37.6069 11.8782 35.0447 20.1085C33.7941 24.1258 31.6329 27.5322 28.9588 29.7011C26.9623 31.3211 24.8129 32.1631 22.7465 32.1631ZM8.44226 13.5216C8.45979 13.5216 8.47781 13.5238 8.49534 13.5285L11.8583 14.4063C11.9682 14.4349 12.0353 14.5461 12.0097 14.6567C10.4625 21.3243 12.1153 27.5567 16.0289 29.8125C16.4213 30.0387 16.8652 30.2404 17.2163 30.352L20.9687 31.5142C23.4381 32.1698 26.1845 31.4112 28.6946 29.3754C31.305 27.2582 33.4178 23.9228 34.6442 19.9841C37.1378 11.9742 35.0331 4.38186 29.8524 2.69914C29.8507 2.69865 29.8489 2.69791 29.8474 2.69741C27.7225 1.94581 25.3168 1.22606 24.9694 1.31988C24.946 1.3263 24.9213 1.32853 24.8973 1.32655C20.5628 0.979143 15.7499 4.96408 13.1884 11.0241C13.1669 11.0752 13.1257 11.1159 13.0741 11.1367C13.0225 11.1577 12.9647 11.1574 12.9134 11.1354L9.76448 9.80087C9.68374 9.7668 9.63288 9.68606 9.63658 9.59865C9.66251 8.98754 9.68794 7.49075 9.36399 6.79198C9.04028 6.09371 5.76522 4.14013 4.2946 4.1026C4.1346 4.0984 3.93263 4.11815 3.8709 4.23569C3.76374 4.43914 3.80868 5.29865 4.25633 7.10161C4.27534 7.1789 4.24942 7.26013 4.18892 7.31174C4.12818 7.36334 4.04374 7.37593 3.9709 7.34532L3.17189 7.00655C2.9867 7.07618 2.4509 7.84927 1.98053 9.23075C1.50966 10.6142 1.463 11.5542 1.56794 11.7204L2.40744 11.9389C2.48448 11.9589 2.54325 12.0209 2.55979 12.0984C2.57633 12.1762 2.5472 12.2567 2.48497 12.3061C1.03016 13.4616 0.470158 14.1152 0.430899 14.3416C0.40843 14.4722 0.556825 14.6117 0.685467 14.7056C1.87361 15.573 5.66102 16.0243 6.34275 15.6675C7.02596 15.3115 7.9188 14.11 8.27115 13.61C8.31065 13.554 8.3751 13.5216 8.44226 13.5216Z" fill="#571C0D"/>
<path d="M16.8298 10.885C16.8298 10.885 16.4261 13.5107 16.4219 13.8277C16.4177 14.1448 20.0125 15.4112 20.3392 15.2579C20.6656 15.1045 20.8666 14.4766 20.5651 14.0749C20.2636 13.6729 17.2135 10.5586 16.8298 10.885Z" fill="#FFE815"/>
<path d="M16.4885 13.6048C16.1541 13.5517 15.9751 12.9268 16.089 12.209C16.2028 11.4912 16.5662 10.9522 16.9006 11.0053C17.2349 11.0584 17.4139 11.6833 17.3001 12.4011C17.1865 13.1189 16.823 13.6579 16.4885 13.6048Z" fill="white"/>
<defs>
<linearGradient id="paint0_linear_72_4548" x1="15.8862" y1="28.779" x2="28.2765" y2="9.17097" gradientUnits="userSpaceOnUse">
<stop stop-color="#FFE815"/>
<stop offset="1" stop-color="#F6A000"/>
</linearGradient>
<linearGradient id="paint1_linear_72_4548" x1="15.5976" y1="4.87015" x2="25.5821" y2="22.7941" gradientUnits="userSpaceOnUse">
<stop stop-color="#F6A000"/>
<stop offset="1" stop-color="#FFE815"/>
</linearGradient>
<linearGradient id="paint2_linear_72_4548" x1="21.7266" y1="7.71674" x2="20.5211" y2="26.4027" gradientUnits="userSpaceOnUse">
<stop stop-color="#FFE815"/>
<stop offset="1" stop-color="#F6A000"/>
</linearGradient>
<linearGradient id="paint3_linear_72_4548" x1="18.968" y1="8.50574" x2="22.0154" y2="20.856" gradientUnits="userSpaceOnUse">
<stop stop-color="#F6A000"/>
<stop offset="1" stop-color="#FFE815"/>
</linearGradient>
<linearGradient id="paint4_linear_72_4548" x1="21.1523" y1="13.4784" x2="18.7412" y2="18.1666" gradientUnits="userSpaceOnUse">
<stop stop-color="#F6A000"/>
<stop offset="1" stop-color="#FFE815"/>
</linearGradient>
<linearGradient id="paint5_linear_72_4548" x1="13.2479" y1="6.33928" x2="10.9708" y2="13.5056" gradientUnits="userSpaceOnUse">
<stop stop-color="#FFE815"/>
<stop offset="1" stop-color="#F6A000"/>
</linearGradient>
</defs>
</svg>
